<?xml version="1.0" encoding="UTF-8"?>
<svg xmlns="http://www.w3.org/2000/svg" width="920" height="680" viewBox="0 0 920 680">
<defs>
<marker id="arrow" markerWidth="8" markerHeight="8" refX="6" refY="3" orient="auto">
<polygon points="0 0, 8 3, 0 6" fill="#374151"/>
</marker>
</defs>
<rect width="920" height="680" fill="white"/>
<rect x="310" y="20" width="300" height="52" rx="8" ry="8" fill="#FFF7ED" stroke="#C2410C" stroke-width="1.5"/>
<text x="460.0" y="42" text-anchor="middle" font-family="Segoe UI, Arial, sans-serif" font-size="13" font-weight="600" fill="#111827">Источники данных</text>
<text x="460.0" y="60" text-anchor="middle" font-family="Segoe UI, Arial, sans-serif" font-size="11" fill="#374151">Windows Event Log · EVTX</text>
<rect x="310" y="100" width="300" height="52" rx="8" ry="8" fill="#E8F0FE" stroke="#1A56DB" stroke-width="1.5"/>
<text x="460.0" y="122" text-anchor="middle" font-family="Segoe UI, Arial, sans-serif" font-size="13" font-weight="600" fill="#111827">Сбор и импорт</text>
<text x="460.0" y="140" text-anchor="middle" font-family="Segoe UI, Arial, sans-serif" font-size="11" fill="#374151">collector_win.py · evtx_import.py</text>
<rect x="310" y="180" width="300" height="44" rx="8" ry="8" fill="#E8F0FE" stroke="#1A56DB" stroke-width="1.5"/>
<text x="460.0" y="202" text-anchor="middle" font-family="Segoe UI, Arial, sans-serif" font-size="13" font-weight="600" fill="#111827">Нормализация</text>
<text x="460.0" y="220" text-anchor="middle" font-family="Segoe UI, Arial, sans-serif" font-size="11" fill="#374151">EventID · parsed · data_json</text>
<rect x="310" y="250" width="300" height="52" rx="8" ry="8" fill="#ECFDF5" stroke="#047857" stroke-width="1.5"/>
<text x="460.0" y="272" text-anchor="middle" font-family="Segoe UI, Arial, sans-serif" font-size="13" font-weight="600" fill="#111827">Хранение</text>
<text x="460.0" y="290" text-anchor="middle" font-family="Segoe UI, Arial, sans-serif" font-size="11" fill="#374151">db.py · SQLite (WAL)</text>
<rect x="120" y="340" width="240" height="52" rx="8" ry="8" fill="#E8F0FE" stroke="#1A56DB" stroke-width="1.5"/>
<text x="240.0" y="362" text-anchor="middle" font-family="Segoe UI, Arial, sans-serif" font-size="13" font-weight="600" fill="#111827">Детектирование</text>
<text x="240.0" y="380" text-anchor="middle" font-family="Segoe UI, Arial, sans-serif" font-size="11" fill="#374151">rules.py · default.yml</text>
<rect x="560" y="340" width="240" height="52" rx="8" ry="8" fill="#E8F0FE" stroke="#1A56DB" stroke-width="1.5"/>
<text x="680.0" y="362" text-anchor="middle" font-family="Segoe UI, Arial, sans-serif" font-size="13" font-weight="600" fill="#111827">Представление</text>
<text x="680.0" y="380" text-anchor="middle" font-family="Segoe UI, Arial, sans-serif" font-size="11" fill="#374151">app.py · PySide6 GUI</text>
<rect x="120" y="440" width="240" height="44" rx="8" ry="8" fill="#FEF2F2" stroke="#B91C1C" stroke-width="1.5"/>
<text x="240.0" y="462" text-anchor="middle" font-family="Segoe UI, Arial, sans-serif" font-size="13" font-weight="600" fill="#111827">Алертинг</text>
<text x="240.0" y="480" text-anchor="middle" font-family="Segoe UI, Arial, sans-serif" font-size="11" fill="#374151">alerts · rules_state</text>
<rect x="560" y="440" width="240" height="44" rx="8" ry="8" fill="#E8F0FE" stroke="#1A56DB" stroke-width="1.5"/>
<text x="680.0" y="462" text-anchor="middle" font-family="Segoe UI, Arial, sans-serif" font-size="13" font-weight="600" fill="#111827">Отчётность</text>
<text x="680.0" y="480" text-anchor="middle" font-family="Segoe UI, Arial, sans-serif" font-size="11" fill="#374151">report.py · HTML / JSON</text>
<rect x="340" y="530" width="240" height="52" rx="8" ry="8" fill="#FEF2F2" stroke="#B91C1C" stroke-width="1.5"/>
<text x="460.0" y="552" text-anchor="middle" font-family="Segoe UI, Arial, sans-serif" font-size="13" font-weight="600" fill="#111827">Реакция</text>
<text x="460.0" y="570" text-anchor="middle" font-family="Segoe UI, Arial, sans-serif" font-size="11" fill="#374151">actions · dry-run</text>
<line x1="460" y1="72" x2="460" y2="100" stroke="#374151" stroke-width="1.5" marker-end="url(#arrow)"/>
<line x1="460" y1="152" x2="460" y2="180" stroke="#374151" stroke-width="1.5" marker-end="url(#arrow)"/>
<line x1="460" y1="224" x2="460" y2="250" stroke="#374151" stroke-width="1.5" marker-end="url(#arrow)"/>
<line x1="460" y1="302" x2="240" y2="340" stroke="#374151" stroke-width="1.5" marker-end="url(#arrow)"/>
<line x1="460" y1="302" x2="680" y2="340" stroke="#374151" stroke-width="1.5" marker-end="url(#arrow)"/>
<line x1="240" y1="392" x2="240" y2="440" stroke="#374151" stroke-width="1.5" marker-end="url(#arrow)"/>
<line x1="680" y1="392" x2="680" y2="440" stroke="#374151" stroke-width="1.5" marker-end="url(#arrow)"/>
<line x1="240" y1="484" x2="400" y2="530" stroke="#374151" stroke-width="1.5" marker-end="url(#arrow)"/>
<line x1="680" y1="484" x2="520" y2="530" stroke="#374151" stroke-width="1.5" marker-end="url(#arrow)"/>
<line x1="460" y1="484" x2="460" y2="530" stroke="#374151" stroke-width="1.5" marker-end="url(#arrow)"/>
<text x="460" y="660" text-anchor="middle" font-family="Segoe UI, Arial, sans-serif" font-size="10" fill="#6B7280">Конвейер: Collection → Normalization → Storage → Detection → Alerting → Presentation → Response</text>
</svg>