<?xml version="1.0" encoding="utf-8" standalone="no"?>
<!DOCTYPE svg PUBLIC "-//W3C//DTD SVG 1.1//EN"
  "http://www.w3.org/Graphics/SVG/1.1/DTD/svg11.dtd">
<svg xmlns:xlink="http://www.w3.org/1999/xlink" width="625.32pt" height="443.952pt" viewBox="0 0 625.32 443.952" xmlns="http://www.w3.org/2000/svg" version="1.1">
 <metadata>
  <rdf:RDF xmlns:dc="http://purl.org/dc/elements/1.1/" xmlns:cc="http://creativecommons.org/ns#" xmlns:rdf="http://www.w3.org/1999/02/22-rdf-syntax-ns#">
   <cc:Work>
    <dc:type rdf:resource="http://purl.org/dc/dcmitype/StillImage"/>
    <dc:date>2026-05-25T05:27:05.178702</dc:date>
    <dc:format>image/svg+xml</dc:format>
    <dc:creator>
     <cc:Agent>
      <dc:title>Matplotlib v3.10.9, https://matplotlib.org/</dc:title>
     </cc:Agent>
    </dc:creator>
   </cc:Work>
  </rdf:RDF>
 </metadata>
 <defs>
  <style type="text/css">*{stroke-linejoin: round; stroke-linecap: butt}</style>
 </defs>
 <g id="figure_1">
  <g id="patch_1">
   <path d="M 0 443.952 
L 625.32 443.952 
L 625.32 0 
L 0 0 
z
" style="fill: #ffffff"/>
  </g>
  <g id="axes_1">
   <g id="patch_2">
    <path d="M 31.42242 50.106456 
L 192.13758 50.106456 
Q 195.48558 50.106456 195.48558 53.432856 
L 195.48558 168.759144 
Q 195.48558 172.085544 192.13758 172.085544 
L 31.42242 172.085544 
Q 28.07442 172.085544 28.07442 168.759144 
L 28.07442 53.432856 
Q 28.07442 50.106456 31.42242 50.106456 
z
" clip-path="url(#p3aa6ab3a4b)" style="fill: #ecfdf5; stroke: #047857; stroke-width: 1.6; stroke-linejoin: miter"/>
   </g>
   <g id="patch_3">
    <path d="M 28.08 50.112 
L 195.48 50.112 
L 195.48 67.8528 
L 28.08 67.8528 
z
" clip-path="url(#p3aa6ab3a4b)" style="fill: #047857"/>
   </g>
   <g id="patch_4">
    <path d="M 232.30242 50.106456 
L 381.85758 50.106456 
Q 385.20558 50.106456 385.20558 53.432856 
L 385.20558 157.671144 
Q 385.20558 160.997544 381.85758 160.997544 
L 232.30242 160.997544 
Q 228.95442 160.997544 228.95442 157.671144 
L 228.95442 53.432856 
Q 228.95442 50.106456 232.30242 50.106456 
z
" clip-path="url(#p3aa6ab3a4b)" style="fill: #fef2f2; stroke: #b91c1c; stroke-width: 1.6; stroke-linejoin: miter"/>
   </g>
   <g id="patch_5">
    <path d="M 228.96 50.112 
L 385.2 50.112 
L 385.2 67.8528 
L 228.96 67.8528 
z
" clip-path="url(#p3aa6ab3a4b)" style="fill: #b91c1c"/>
   </g>
   <g id="patch_6">
    <path d="M 433.18242 50.106456 
L 582.73758 50.106456 
Q 586.08558 50.106456 586.08558 53.432856 
L 586.08558 146.583144 
Q 586.08558 149.909544 582.73758 149.909544 
L 433.18242 149.909544 
Q 429.83442 149.909544 429.83442 146.583144 
L 429.83442 53.432856 
Q 429.83442 50.106456 433.18242 50.106456 
z
" clip-path="url(#p3aa6ab3a4b)" style="fill: #eef2ff; stroke: #4338ca; stroke-width: 1.6; stroke-linejoin: miter"/>
   </g>
   <g id="patch_7">
    <path d="M 429.84 50.112 
L 586.08 50.112 
L 586.08 67.8528 
L 429.84 67.8528 
z
" clip-path="url(#p3aa6ab3a4b)" style="fill: #4338ca"/>
   </g>
   <g id="patch_8">
    <path d="M 232.30242 205.338456 
L 381.85758 205.338456 
Q 385.20558 205.338456 385.20558 208.664856 
L 385.20558 296.271144 
Q 385.20558 299.597544 381.85758 299.597544 
L 232.30242 299.597544 
Q 228.95442 299.597544 228.95442 296.271144 
L 228.95442 208.664856 
Q 228.95442 205.338456 232.30242 205.338456 
z
" clip-path="url(#p3aa6ab3a4b)" style="fill: #fff7ed; stroke: #c2410c; stroke-width: 1.6; stroke-linejoin: miter"/>
   </g>
   <g id="patch_9">
    <path d="M 228.96 205.344 
L 385.2 205.344 
L 385.2 223.0848 
L 228.96 223.0848 
z
" clip-path="url(#p3aa6ab3a4b)" style="fill: #c2410c"/>
   </g>
   <g id="patch_10">
    <path d="M 433.18242 183.162456 
L 582.73758 183.162456 
Q 586.08558 183.162456 586.08558 186.488856 
L 586.08558 263.007144 
Q 586.08558 266.333544 582.73758 266.333544 
L 433.18242 266.333544 
Q 429.83442 266.333544 429.83442 263.007144 
L 429.83442 186.488856 
Q 429.83442 183.162456 433.18242 183.162456 
z
" clip-path="url(#p3aa6ab3a4b)" style="fill: #eef2ff; stroke: #4338ca; stroke-width: 1.6; stroke-linejoin: miter"/>
   </g>
   <g id="patch_11">
    <path d="M 429.84 183.168 
L 586.08 183.168 
L 586.08 200.9088 
L 429.84 200.9088 
z
" clip-path="url(#p3aa6ab3a4b)" style="fill: #4338ca"/>
   </g>
   <g id="patch_12">
    <path d="M 31.42242 216.426456 
L 180.97758 216.426456 
Q 184.32558 216.426456 184.32558 219.752856 
L 184.32558 279.639144 
Q 184.32558 282.965544 180.97758 282.965544 
L 31.42242 282.965544 
Q 28.07442 282.965544 28.07442 279.639144 
L 28.07442 219.752856 
Q 28.07442 216.426456 31.42242 216.426456 
z
" clip-path="url(#p3aa6ab3a4b)" style="fill: #f3f4f6; stroke: #4b5563; stroke-width: 1.6; stroke-linejoin: miter"/>
   </g>
   <g id="patch_13">
    <path d="M 28.08 216.432 
L 184.32 216.432 
L 184.32 234.1728 
L 28.08 234.1728 
z
" clip-path="url(#p3aa6ab3a4b)" style="fill: #4b5563"/>
   </g>
   <g id="patch_14">
    <path d="M 307.08 162.992496 
Q 307.08 183.169172 307.08 201.780601 
" clip-path="url(#p3aa6ab3a4b)" style="fill: none; stroke: #374151; stroke-width: 1.4; stroke-linecap: round"/>
    <path d="M 309.28 197.380601 
L 307.08 201.780601 
L 304.88 197.380601 
z
" clip-path="url(#p3aa6ab3a4b)" style="fill: #374151; stroke: #374151; stroke-width: 1.4; stroke-linecap: round"/>
   </g>
   <g id="patch_15">
    <path d="M 386.990068 99.11874 
Q 407.519276 88.92036 428.048484 78.721979 
" clip-path="url(#p3aa6ab3a4b)" style="fill: none; stroke-dasharray: 7,5.6; stroke-dashoffset: 0; stroke: #6b7280; stroke-width: 1.4; stroke-linecap: round"/>
   </g>
   <g id="patch_16">
    <path d="M 463.32 135.272834 
Q 463.32 158.219191 463.32 181.165547 
" clip-path="url(#p3aa6ab3a4b)" style="fill: none; stroke-dasharray: 7,5.6; stroke-dashoffset: 0; stroke: #6b7280; stroke-width: 1.4; stroke-linecap: round"/>
   </g>
   <g id="patch_17">
    <path d="M 197.380415 110.466615 
Q 212.219967 105.552011 227.05952 100.637406 
" clip-path="url(#p3aa6ab3a4b)" style="fill: none; stroke-dasharray: 2.8,4.2; stroke-dashoffset: 0; stroke: #6b7280; stroke-width: 1.4; stroke-linecap: round"/>
   </g>
   <g id="text_1">
    <!-- events -->
    <g style="fill: #ffffff" transform="translate(89.019375 62.29365) scale(0.12 -0.12)">
     <defs>
      <path id="DejaVuSans-Bold-65" d="M 4031 1759 
L 4031 1441 
L 1416 1441 
Q 1456 1047 1700 850 
Q 1944 653 2381 653 
Q 2734 653 3104 758 
Q 3475 863 3866 1075 
L 3866 213 
Q 3469 63 3072 -14 
Q 2675 -91 2278 -91 
Q 1328 -91 801 392 
Q 275 875 275 1747 
Q 275 2603 792 3093 
Q 1309 3584 2216 3584 
Q 3041 3584 3536 3087 
Q 4031 2591 4031 1759 
z
M 2881 2131 
Q 2881 2450 2695 2645 
Q 2509 2841 2209 2841 
Q 1884 2841 1681 2658 
Q 1478 2475 1428 2131 
L 2881 2131 
z
" transform="scale(0.015625)"/>
      <path id="DejaVuSans-Bold-76" d="M 97 3500 
L 1216 3500 
L 2088 1081 
L 2956 3500 
L 4078 3500 
L 2700 0 
L 1472 0 
L 97 3500 
z
" transform="scale(0.015625)"/>
      <path id="DejaVuSans-Bold-6e" d="M 4056 2131 
L 4056 0 
L 2931 0 
L 2931 347 
L 2931 1631 
Q 2931 2084 2911 2256 
Q 2891 2428 2841 2509 
Q 2775 2619 2662 2680 
Q 2550 2741 2406 2741 
Q 2056 2741 1856 2470 
Q 1656 2200 1656 1722 
L 1656 0 
L 538 0 
L 538 3500 
L 1656 3500 
L 1656 2988 
Q 1909 3294 2193 3439 
Q 2478 3584 2822 3584 
Q 3428 3584 3742 3212 
Q 4056 2841 4056 2131 
z
" transform="scale(0.015625)"/>
      <path id="DejaVuSans-Bold-74" d="M 1759 4494 
L 1759 3500 
L 2913 3500 
L 2913 2700 
L 1759 2700 
L 1759 1216 
Q 1759 972 1856 886 
Q 1953 800 2241 800 
L 2816 800 
L 2816 0 
L 1856 0 
Q 1194 0 917 276 
Q 641 553 641 1216 
L 641 2700 
L 84 2700 
L 84 3500 
L 641 3500 
L 641 4494 
L 1759 4494 
z
" transform="scale(0.015625)"/>
      <path id="DejaVuSans-Bold-73" d="M 3272 3391 
L 3272 2541 
Q 2913 2691 2578 2766 
Q 2244 2841 1947 2841 
Q 1628 2841 1473 2761 
Q 1319 2681 1319 2516 
Q 1319 2381 1436 2309 
Q 1553 2238 1856 2203 
L 2053 2175 
Q 2913 2066 3209 1816 
Q 3506 1566 3506 1031 
Q 3506 472 3093 190 
Q 2681 -91 1863 -91 
Q 1516 -91 1145 -36 
Q 775 19 384 128 
L 384 978 
Q 719 816 1070 734 
Q 1422 653 1784 653 
Q 2113 653 2278 743 
Q 2444 834 2444 1013 
Q 2444 1163 2330 1236 
Q 2216 1309 1875 1350 
L 1678 1375 
Q 931 1469 631 1722 
Q 331 1975 331 2491 
Q 331 3047 712 3315 
Q 1094 3584 1881 3584 
Q 2191 3584 2531 3537 
Q 2872 3491 3272 3391 
z
" transform="scale(0.015625)"/>
     </defs>
     <use xlink:href="#DejaVuSans-Bold-65"/>
     <use xlink:href="#DejaVuSans-Bold-76" transform="translate(67.822266 0)"/>
     <use xlink:href="#DejaVuSans-Bold-65" transform="translate(133.007812 0)"/>
     <use xlink:href="#DejaVuSans-Bold-6e" transform="translate(200.830078 0)"/>
     <use xlink:href="#DejaVuSans-Bold-74" transform="translate(272.021484 0)"/>
     <use xlink:href="#DejaVuSans-Bold-73" transform="translate(319.824219 0)"/>
    </g>
   </g>
   <g id="text_2">
    <!-- id  PK -->
    <g style="fill: #111827" transform="translate(34.776 78.097837) scale(0.09 -0.09)">
     <defs>
      <path id="DejaVuSans-Bold-69" d="M 538 3500 
L 1656 3500 
L 1656 0 
L 538 0 
L 538 3500 
z
M 538 4863 
L 1656 4863 
L 1656 3950 
L 538 3950 
L 538 4863 
z
" transform="scale(0.015625)"/>
      <path id="DejaVuSans-Bold-64" d="M 2919 2988 
L 2919 4863 
L 4044 4863 
L 4044 0 
L 2919 0 
L 2919 506 
Q 2688 197 2409 53 
Q 2131 -91 1766 -91 
Q 1119 -91 703 423 
Q 288 938 288 1747 
Q 288 2556 703 3070 
Q 1119 3584 1766 3584 
Q 2128 3584 2408 3439 
Q 2688 3294 2919 2988 
z
M 2181 722 
Q 2541 722 2730 984 
Q 2919 1247 2919 1747 
Q 2919 2247 2730 2509 
Q 2541 2772 2181 2772 
Q 1825 2772 1636 2509 
Q 1447 2247 1447 1747 
Q 1447 1247 1636 984 
Q 1825 722 2181 722 
z
" transform="scale(0.015625)"/>
      <path id="DejaVuSans-Bold-20" transform="scale(0.015625)"/>
      <path id="DejaVuSans-Bold-50" d="M 588 4666 
L 2584 4666 
Q 3475 4666 3951 4270 
Q 4428 3875 4428 3144 
Q 4428 2409 3951 2014 
Q 3475 1619 2584 1619 
L 1791 1619 
L 1791 0 
L 588 0 
L 588 4666 
z
M 1791 3794 
L 1791 2491 
L 2456 2491 
Q 2806 2491 2997 2661 
Q 3188 2831 3188 3144 
Q 3188 3456 2997 3625 
Q 2806 3794 2456 3794 
L 1791 3794 
z
" transform="scale(0.015625)"/>
      <path id="DejaVuSans-Bold-4b" d="M 588 4666 
L 1791 4666 
L 1791 2963 
L 3525 4666 
L 4922 4666 
L 2675 2456 
L 5153 0 
L 3647 0 
L 1791 1838 
L 1791 0 
L 588 0 
L 588 4666 
z
" transform="scale(0.015625)"/>
     </defs>
     <use xlink:href="#DejaVuSans-Bold-69"/>
     <use xlink:href="#DejaVuSans-Bold-64" transform="translate(34.277344 0)"/>
     <use xlink:href="#DejaVuSans-Bold-20" transform="translate(105.859375 0)"/>
     <use xlink:href="#DejaVuSans-Bold-20" transform="translate(140.673828 0)"/>
     <use xlink:href="#DejaVuSans-Bold-50" transform="translate(175.488281 0)"/>
     <use xlink:href="#DejaVuSans-Bold-4b" transform="translate(248.779297 0)"/>
    </g>
   </g>
   <g id="text_3">
    <!-- ts_utc -->
    <g style="fill: #111827" transform="translate(34.776 86.717925) scale(0.09 -0.09)">
     <defs>
      <path id="DejaVuSans-74" d="M 1172 4494 
L 1172 3500 
L 2356 3500 
L 2356 3053 
L 1172 3053 
L 1172 1153 
Q 1172 725 1289 603 
Q 1406 481 1766 481 
L 2356 481 
L 2356 0 
L 1766 0 
Q 1100 0 847 248 
Q 594 497 594 1153 
L 594 3053 
L 172 3053 
L 172 3500 
L 594 3500 
L 594 4494 
L 1172 4494 
z
" transform="scale(0.015625)"/>
      <path id="DejaVuSans-73" d="M 2834 3397 
L 2834 2853 
Q 2591 2978 2328 3040 
Q 2066 3103 1784 3103 
Q 1356 3103 1142 2972 
Q 928 2841 928 2578 
Q 928 2378 1081 2264 
Q 1234 2150 1697 2047 
L 1894 2003 
Q 2506 1872 2764 1633 
Q 3022 1394 3022 966 
Q 3022 478 2636 193 
Q 2250 -91 1575 -91 
Q 1294 -91 989 -36 
Q 684 19 347 128 
L 347 722 
Q 666 556 975 473 
Q 1284 391 1588 391 
Q 1994 391 2212 530 
Q 2431 669 2431 922 
Q 2431 1156 2273 1281 
Q 2116 1406 1581 1522 
L 1381 1569 
Q 847 1681 609 1914 
Q 372 2147 372 2553 
Q 372 3047 722 3315 
Q 1072 3584 1716 3584 
Q 2034 3584 2315 3537 
Q 2597 3491 2834 3397 
z
" transform="scale(0.015625)"/>
      <path id="DejaVuSans-5f" d="M 3263 -1063 
L 3263 -1509 
L -63 -1509 
L -63 -1063 
L 3263 -1063 
z
" transform="scale(0.015625)"/>
      <path id="DejaVuSans-75" d="M 544 1381 
L 544 3500 
L 1119 3500 
L 1119 1403 
Q 1119 906 1312 657 
Q 1506 409 1894 409 
Q 2359 409 2629 706 
Q 2900 1003 2900 1516 
L 2900 3500 
L 3475 3500 
L 3475 0 
L 2900 0 
L 2900 538 
Q 2691 219 2414 64 
Q 2138 -91 1772 -91 
Q 1169 -91 856 284 
Q 544 659 544 1381 
z
M 1991 3584 
L 1991 3584 
z
" transform="scale(0.015625)"/>
      <path id="DejaVuSans-63" d="M 3122 3366 
L 3122 2828 
Q 2878 2963 2633 3030 
Q 2388 3097 2138 3097 
Q 1578 3097 1268 2742 
Q 959 2388 959 1747 
Q 959 1106 1268 751 
Q 1578 397 2138 397 
Q 2388 397 2633 464 
Q 2878 531 3122 666 
L 3122 134 
Q 2881 22 2623 -34 
Q 2366 -91 2075 -91 
Q 1284 -91 818 406 
Q 353 903 353 1747 
Q 353 2603 823 3093 
Q 1294 3584 2113 3584 
Q 2378 3584 2631 3529 
Q 2884 3475 3122 3366 
z
" transform="scale(0.015625)"/>
     </defs>
     <use xlink:href="#DejaVuSans-74"/>
     <use xlink:href="#DejaVuSans-73" transform="translate(39.208984 0)"/>
     <use xlink:href="#DejaVuSans-5f" transform="translate(91.308594 0)"/>
     <use xlink:href="#DejaVuSans-75" transform="translate(141.308594 0)"/>
     <use xlink:href="#DejaVuSans-74" transform="translate(204.6875 0)"/>
     <use xlink:href="#DejaVuSans-63" transform="translate(243.896484 0)"/>
    </g>
   </g>
   <g id="text_4">
    <!-- channel -->
    <g style="fill: #111827" transform="translate(34.776 95.838637) scale(0.09 -0.09)">
     <defs>
      <path id="DejaVuSans-68" d="M 3513 2113 
L 3513 0 
L 2938 0 
L 2938 2094 
Q 2938 2591 2744 2837 
Q 2550 3084 2163 3084 
Q 1697 3084 1428 2787 
Q 1159 2491 1159 1978 
L 1159 0 
L 581 0 
L 581 4863 
L 1159 4863 
L 1159 2956 
Q 1366 3272 1645 3428 
Q 1925 3584 2291 3584 
Q 2894 3584 3203 3211 
Q 3513 2838 3513 2113 
z
" transform="scale(0.015625)"/>
      <path id="DejaVuSans-61" d="M 2194 1759 
Q 1497 1759 1228 1600 
Q 959 1441 959 1056 
Q 959 750 1161 570 
Q 1363 391 1709 391 
Q 2188 391 2477 730 
Q 2766 1069 2766 1631 
L 2766 1759 
L 2194 1759 
z
M 3341 1997 
L 3341 0 
L 2766 0 
L 2766 531 
Q 2569 213 2275 61 
Q 1981 -91 1556 -91 
Q 1019 -91 701 211 
Q 384 513 384 1019 
Q 384 1609 779 1909 
Q 1175 2209 1959 2209 
L 2766 2209 
L 2766 2266 
Q 2766 2663 2505 2880 
Q 2244 3097 1772 3097 
Q 1472 3097 1187 3025 
Q 903 2953 641 2809 
L 641 3341 
Q 956 3463 1253 3523 
Q 1550 3584 1831 3584 
Q 2591 3584 2966 3190 
Q 3341 2797 3341 1997 
z
" transform="scale(0.015625)"/>
      <path id="DejaVuSans-6e" d="M 3513 2113 
L 3513 0 
L 2938 0 
L 2938 2094 
Q 2938 2591 2744 2837 
Q 2550 3084 2163 3084 
Q 1697 3084 1428 2787 
Q 1159 2491 1159 1978 
L 1159 0 
L 581 0 
L 581 3500 
L 1159 3500 
L 1159 2956 
Q 1366 3272 1645 3428 
Q 1925 3584 2291 3584 
Q 2894 3584 3203 3211 
Q 3513 2838 3513 2113 
z
" transform="scale(0.015625)"/>
      <path id="DejaVuSans-65" d="M 3597 1894 
L 3597 1613 
L 953 1613 
Q 991 1019 1311 708 
Q 1631 397 2203 397 
Q 2534 397 2845 478 
Q 3156 559 3463 722 
L 3463 178 
Q 3153 47 2828 -22 
Q 2503 -91 2169 -91 
Q 1331 -91 842 396 
Q 353 884 353 1716 
Q 353 2575 817 3079 
Q 1281 3584 2069 3584 
Q 2775 3584 3186 3129 
Q 3597 2675 3597 1894 
z
M 3022 2063 
Q 3016 2534 2758 2815 
Q 2500 3097 2075 3097 
Q 1594 3097 1305 2825 
Q 1016 2553 972 2059 
L 3022 2063 
z
" transform="scale(0.015625)"/>
      <path id="DejaVuSans-6c" d="M 603 4863 
L 1178 4863 
L 1178 0 
L 603 0 
L 603 4863 
z
" transform="scale(0.015625)"/>
     </defs>
     <use xlink:href="#DejaVuSans-63"/>
     <use xlink:href="#DejaVuSans-68" transform="translate(54.980469 0)"/>
     <use xlink:href="#DejaVuSans-61" transform="translate(118.359375 0)"/>
     <use xlink:href="#DejaVuSans-6e" transform="translate(179.638672 0)"/>
     <use xlink:href="#DejaVuSans-6e" transform="translate(243.017578 0)"/>
     <use xlink:href="#DejaVuSans-65" transform="translate(306.396484 0)"/>
     <use xlink:href="#DejaVuSans-6c" transform="translate(367.919922 0)"/>
    </g>
   </g>
   <g id="text_5">
    <!-- provider -->
    <g style="fill: #111827" transform="translate(34.776 104.709037) scale(0.09 -0.09)">
     <defs>
      <path id="DejaVuSans-70" d="M 1159 525 
L 1159 -1331 
L 581 -1331 
L 581 3500 
L 1159 3500 
L 1159 2969 
Q 1341 3281 1617 3432 
Q 1894 3584 2278 3584 
Q 2916 3584 3314 3078 
Q 3713 2572 3713 1747 
Q 3713 922 3314 415 
Q 2916 -91 2278 -91 
Q 1894 -91 1617 61 
Q 1341 213 1159 525 
z
M 3116 1747 
Q 3116 2381 2855 2742 
Q 2594 3103 2138 3103 
Q 1681 3103 1420 2742 
Q 1159 2381 1159 1747 
Q 1159 1113 1420 752 
Q 1681 391 2138 391 
Q 2594 391 2855 752 
Q 3116 1113 3116 1747 
z
" transform="scale(0.015625)"/>
      <path id="DejaVuSans-72" d="M 2631 2963 
Q 2534 3019 2420 3045 
Q 2306 3072 2169 3072 
Q 1681 3072 1420 2755 
Q 1159 2438 1159 1844 
L 1159 0 
L 581 0 
L 581 3500 
L 1159 3500 
L 1159 2956 
Q 1341 3275 1631 3429 
Q 1922 3584 2338 3584 
Q 2397 3584 2469 3576 
Q 2541 3569 2628 3553 
L 2631 2963 
z
" transform="scale(0.015625)"/>
      <path id="DejaVuSans-6f" d="M 1959 3097 
Q 1497 3097 1228 2736 
Q 959 2375 959 1747 
Q 959 1119 1226 758 
Q 1494 397 1959 397 
Q 2419 397 2687 759 
Q 2956 1122 2956 1747 
Q 2956 2369 2687 2733 
Q 2419 3097 1959 3097 
z
M 1959 3584 
Q 2709 3584 3137 3096 
Q 3566 2609 3566 1747 
Q 3566 888 3137 398 
Q 2709 -91 1959 -91 
Q 1206 -91 779 398 
Q 353 888 353 1747 
Q 353 2609 779 3096 
Q 1206 3584 1959 3584 
z
" transform="scale(0.015625)"/>
      <path id="DejaVuSans-76" d="M 191 3500 
L 800 3500 
L 1894 563 
L 2988 3500 
L 3597 3500 
L 2284 0 
L 1503 0 
L 191 3500 
z
" transform="scale(0.015625)"/>
      <path id="DejaVuSans-69" d="M 603 3500 
L 1178 3500 
L 1178 0 
L 603 0 
L 603 3500 
z
M 603 4863 
L 1178 4863 
L 1178 4134 
L 603 4134 
L 603 4863 
z
" transform="scale(0.015625)"/>
      <path id="DejaVuSans-64" d="M 2906 2969 
L 2906 4863 
L 3481 4863 
L 3481 0 
L 2906 0 
L 2906 525 
Q 2725 213 2448 61 
Q 2172 -91 1784 -91 
Q 1150 -91 751 415 
Q 353 922 353 1747 
Q 353 2572 751 3078 
Q 1150 3584 1784 3584 
Q 2172 3584 2448 3432 
Q 2725 3281 2906 2969 
z
M 947 1747 
Q 947 1113 1208 752 
Q 1469 391 1925 391 
Q 2381 391 2643 752 
Q 2906 1113 2906 1747 
Q 2906 2381 2643 2742 
Q 2381 3103 1925 3103 
Q 1469 3103 1208 2742 
Q 947 2381 947 1747 
z
" transform="scale(0.015625)"/>
     </defs>
     <use xlink:href="#DejaVuSans-70"/>
     <use xlink:href="#DejaVuSans-72" transform="translate(63.476562 0)"/>
     <use xlink:href="#DejaVuSans-6f" transform="translate(102.339844 0)"/>
     <use xlink:href="#DejaVuSans-76" transform="translate(163.521484 0)"/>
     <use xlink:href="#DejaVuSans-69" transform="translate(222.701172 0)"/>
     <use xlink:href="#DejaVuSans-64" transform="translate(250.484375 0)"/>
     <use xlink:href="#DejaVuSans-65" transform="translate(313.960938 0)"/>
     <use xlink:href="#DejaVuSans-72" transform="translate(375.484375 0)"/>
    </g>
   </g>
   <g id="text_6">
    <!-- event_id -->
    <g style="fill: #111827" transform="translate(34.776 113.454281) scale(0.09 -0.09)">
     <use xlink:href="#DejaVuSans-65"/>
     <use xlink:href="#DejaVuSans-76" transform="translate(61.523438 0)"/>
     <use xlink:href="#DejaVuSans-65" transform="translate(120.703125 0)"/>
     <use xlink:href="#DejaVuSans-6e" transform="translate(182.226562 0)"/>
     <use xlink:href="#DejaVuSans-74" transform="translate(245.605469 0)"/>
     <use xlink:href="#DejaVuSans-5f" transform="translate(284.814453 0)"/>
     <use xlink:href="#DejaVuSans-69" transform="translate(334.814453 0)"/>
     <use xlink:href="#DejaVuSans-64" transform="translate(362.597656 0)"/>
    </g>
   </g>
   <g id="text_7">
    <!-- level -->
    <g style="fill: #111827" transform="translate(34.776 122.449838) scale(0.09 -0.09)">
     <use xlink:href="#DejaVuSans-6c"/>
     <use xlink:href="#DejaVuSans-65" transform="translate(27.783203 0)"/>
     <use xlink:href="#DejaVuSans-76" transform="translate(89.306641 0)"/>
     <use xlink:href="#DejaVuSans-65" transform="translate(148.486328 0)"/>
     <use xlink:href="#DejaVuSans-6c" transform="translate(210.009766 0)"/>
    </g>
   </g>
   <g id="text_8">
    <!-- computer -->
    <g style="fill: #111827" transform="translate(34.776 131.320237) scale(0.09 -0.09)">
     <defs>
      <path id="DejaVuSans-6d" d="M 3328 2828 
Q 3544 3216 3844 3400 
Q 4144 3584 4550 3584 
Q 5097 3584 5394 3201 
Q 5691 2819 5691 2113 
L 5691 0 
L 5113 0 
L 5113 2094 
Q 5113 2597 4934 2840 
Q 4756 3084 4391 3084 
Q 3944 3084 3684 2787 
Q 3425 2491 3425 1978 
L 3425 0 
L 2847 0 
L 2847 2094 
Q 2847 2600 2669 2842 
Q 2491 3084 2119 3084 
Q 1678 3084 1418 2786 
Q 1159 2488 1159 1978 
L 1159 0 
L 581 0 
L 581 3500 
L 1159 3500 
L 1159 2956 
Q 1356 3278 1631 3431 
Q 1906 3584 2284 3584 
Q 2666 3584 2933 3390 
Q 3200 3197 3328 2828 
z
" transform="scale(0.015625)"/>
     </defs>
     <use xlink:href="#DejaVuSans-63"/>
     <use xlink:href="#DejaVuSans-6f" transform="translate(54.980469 0)"/>
     <use xlink:href="#DejaVuSans-6d" transform="translate(116.162109 0)"/>
     <use xlink:href="#DejaVuSans-70" transform="translate(213.574219 0)"/>
     <use xlink:href="#DejaVuSans-75" transform="translate(277.050781 0)"/>
     <use xlink:href="#DejaVuSans-74" transform="translate(340.429688 0)"/>
     <use xlink:href="#DejaVuSans-65" transform="translate(379.638672 0)"/>
     <use xlink:href="#DejaVuSans-72" transform="translate(441.162109 0)"/>
    </g>
   </g>
   <g id="text_9">
    <!-- record_id -->
    <g style="fill: #111827" transform="translate(34.776 140.065481) scale(0.09 -0.09)">
     <use xlink:href="#DejaVuSans-72"/>
     <use xlink:href="#DejaVuSans-65" transform="translate(38.863281 0)"/>
     <use xlink:href="#DejaVuSans-63" transform="translate(100.386719 0)"/>
     <use xlink:href="#DejaVuSans-6f" transform="translate(155.367188 0)"/>
     <use xlink:href="#DejaVuSans-72" transform="translate(216.548828 0)"/>
     <use xlink:href="#DejaVuSans-64" transform="translate(255.912109 0)"/>
     <use xlink:href="#DejaVuSans-5f" transform="translate(319.388672 0)"/>
     <use xlink:href="#DejaVuSans-69" transform="translate(369.388672 0)"/>
     <use xlink:href="#DejaVuSans-64" transform="translate(397.171875 0)"/>
    </g>
   </g>
   <g id="text_10">
    <!-- message -->
    <g style="fill: #111827" transform="translate(34.776 149.061037) scale(0.09 -0.09)">
     <defs>
      <path id="DejaVuSans-67" d="M 2906 1791 
Q 2906 2416 2648 2759 
Q 2391 3103 1925 3103 
Q 1463 3103 1205 2759 
Q 947 2416 947 1791 
Q 947 1169 1205 825 
Q 1463 481 1925 481 
Q 2391 481 2648 825 
Q 2906 1169 2906 1791 
z
M 3481 434 
Q 3481 -459 3084 -895 
Q 2688 -1331 1869 -1331 
Q 1566 -1331 1297 -1286 
Q 1028 -1241 775 -1147 
L 775 -588 
Q 1028 -725 1275 -790 
Q 1522 -856 1778 -856 
Q 2344 -856 2625 -561 
Q 2906 -266 2906 331 
L 2906 616 
Q 2728 306 2450 153 
Q 2172 0 1784 0 
Q 1141 0 747 490 
Q 353 981 353 1791 
Q 353 2603 747 3093 
Q 1141 3584 1784 3584 
Q 2172 3584 2450 3431 
Q 2728 3278 2906 2969 
L 2906 3500 
L 3481 3500 
L 3481 434 
z
" transform="scale(0.015625)"/>
     </defs>
     <use xlink:href="#DejaVuSans-6d"/>
     <use xlink:href="#DejaVuSans-65" transform="translate(97.412109 0)"/>
     <use xlink:href="#DejaVuSans-73" transform="translate(158.935547 0)"/>
     <use xlink:href="#DejaVuSans-73" transform="translate(211.035156 0)"/>
     <use xlink:href="#DejaVuSans-61" transform="translate(263.134766 0)"/>
     <use xlink:href="#DejaVuSans-67" transform="translate(324.414062 0)"/>
     <use xlink:href="#DejaVuSans-65" transform="translate(387.890625 0)"/>
    </g>
   </g>
   <g id="text_11">
    <!-- data_json -->
    <g style="fill: #111827" transform="translate(34.776 157.806281) scale(0.09 -0.09)">
     <defs>
      <path id="DejaVuSans-6a" d="M 603 3500 
L 1178 3500 
L 1178 -63 
Q 1178 -731 923 -1031 
Q 669 -1331 103 -1331 
L -116 -1331 
L -116 -844 
L 38 -844 
Q 366 -844 484 -692 
Q 603 -541 603 -63 
L 603 3500 
z
M 603 4863 
L 1178 4863 
L 1178 4134 
L 603 4134 
L 603 4863 
z
" transform="scale(0.015625)"/>
     </defs>
     <use xlink:href="#DejaVuSans-64"/>
     <use xlink:href="#DejaVuSans-61" transform="translate(63.476562 0)"/>
     <use xlink:href="#DejaVuSans-74" transform="translate(124.755859 0)"/>
     <use xlink:href="#DejaVuSans-61" transform="translate(163.964844 0)"/>
     <use xlink:href="#DejaVuSans-5f" transform="translate(225.244141 0)"/>
     <use xlink:href="#DejaVuSans-6a" transform="translate(275.244141 0)"/>
     <use xlink:href="#DejaVuSans-73" transform="translate(303.027344 0)"/>
     <use xlink:href="#DejaVuSans-6f" transform="translate(355.126953 0)"/>
     <use xlink:href="#DejaVuSans-6e" transform="translate(416.308594 0)"/>
    </g>
   </g>
   <g id="text_12">
    <!-- parsed_account -->
    <g style="fill: #111827" transform="translate(34.776 166.676681) scale(0.09 -0.09)">
     <use xlink:href="#DejaVuSans-70"/>
     <use xlink:href="#DejaVuSans-61" transform="translate(63.476562 0)"/>
     <use xlink:href="#DejaVuSans-72" transform="translate(124.755859 0)"/>
     <use xlink:href="#DejaVuSans-73" transform="translate(165.869141 0)"/>
     <use xlink:href="#DejaVuSans-65" transform="translate(217.96875 0)"/>
     <use xlink:href="#DejaVuSans-64" transform="translate(279.492188 0)"/>
     <use xlink:href="#DejaVuSans-5f" transform="translate(342.96875 0)"/>
     <use xlink:href="#DejaVuSans-61" transform="translate(392.96875 0)"/>
     <use xlink:href="#DejaVuSans-63" transform="translate(454.248047 0)"/>
     <use xlink:href="#DejaVuSans-63" transform="translate(509.228516 0)"/>
     <use xlink:href="#DejaVuSans-6f" transform="translate(564.208984 0)"/>
     <use xlink:href="#DejaVuSans-75" transform="translate(625.390625 0)"/>
     <use xlink:href="#DejaVuSans-6e" transform="translate(688.769531 0)"/>
     <use xlink:href="#DejaVuSans-74" transform="translate(752.148438 0)"/>
    </g>
   </g>
   <g id="text_13">
    <!-- parsed_ip -->
    <g style="fill: #111827" transform="translate(34.776 175.547081) scale(0.09 -0.09)">
     <use xlink:href="#DejaVuSans-70"/>
     <use xlink:href="#DejaVuSans-61" transform="translate(63.476562 0)"/>
     <use xlink:href="#DejaVuSans-72" transform="translate(124.755859 0)"/>
     <use xlink:href="#DejaVuSans-73" transform="translate(165.869141 0)"/>
     <use xlink:href="#DejaVuSans-65" transform="translate(217.96875 0)"/>
     <use xlink:href="#DejaVuSans-64" transform="translate(279.492188 0)"/>
     <use xlink:href="#DejaVuSans-5f" transform="translate(342.96875 0)"/>
     <use xlink:href="#DejaVuSans-69" transform="translate(392.96875 0)"/>
     <use xlink:href="#DejaVuSans-70" transform="translate(420.751953 0)"/>
    </g>
   </g>
   <g id="text_14">
    <!-- parsed_logon_type -->
    <g style="fill: #111827" transform="translate(34.776 184.417481) scale(0.09 -0.09)">
     <defs>
      <path id="DejaVuSans-79" d="M 2059 -325 
Q 1816 -950 1584 -1140 
Q 1353 -1331 966 -1331 
L 506 -1331 
L 506 -850 
L 844 -850 
Q 1081 -850 1212 -737 
Q 1344 -625 1503 -206 
L 1606 56 
L 191 3500 
L 800 3500 
L 1894 763 
L 2988 3500 
L 3597 3500 
L 2059 -325 
z
" transform="scale(0.015625)"/>
     </defs>
     <use xlink:href="#DejaVuSans-70"/>
     <use xlink:href="#DejaVuSans-61" transform="translate(63.476562 0)"/>
     <use xlink:href="#DejaVuSans-72" transform="translate(124.755859 0)"/>
     <use xlink:href="#DejaVuSans-73" transform="translate(165.869141 0)"/>
     <use xlink:href="#DejaVuSans-65" transform="translate(217.96875 0)"/>
     <use xlink:href="#DejaVuSans-64" transform="translate(279.492188 0)"/>
     <use xlink:href="#DejaVuSans-5f" transform="translate(342.96875 0)"/>
     <use xlink:href="#DejaVuSans-6c" transform="translate(392.96875 0)"/>
     <use xlink:href="#DejaVuSans-6f" transform="translate(420.751953 0)"/>
     <use xlink:href="#DejaVuSans-67" transform="translate(481.933594 0)"/>
     <use xlink:href="#DejaVuSans-6f" transform="translate(545.410156 0)"/>
     <use xlink:href="#DejaVuSans-6e" transform="translate(606.591797 0)"/>
     <use xlink:href="#DejaVuSans-5f" transform="translate(669.970703 0)"/>
     <use xlink:href="#DejaVuSans-74" transform="translate(719.970703 0)"/>
     <use xlink:href="#DejaVuSans-79" transform="translate(759.179688 0)"/>
     <use xlink:href="#DejaVuSans-70" transform="translate(818.359375 0)"/>
     <use xlink:href="#DejaVuSans-65" transform="translate(881.835938 0)"/>
    </g>
   </g>
   <g id="text_15">
    <!-- alerts -->
    <g style="fill: #ffffff" transform="translate(287.506875 62.29365) scale(0.12 -0.12)">
     <defs>
      <path id="DejaVuSans-Bold-61" d="M 2106 1575 
Q 1756 1575 1579 1456 
Q 1403 1338 1403 1106 
Q 1403 894 1545 773 
Q 1688 653 1941 653 
Q 2256 653 2472 879 
Q 2688 1106 2688 1447 
L 2688 1575 
L 2106 1575 
z
M 3816 1997 
L 3816 0 
L 2688 0 
L 2688 519 
Q 2463 200 2181 54 
Q 1900 -91 1497 -91 
Q 953 -91 614 226 
Q 275 544 275 1050 
Q 275 1666 698 1953 
Q 1122 2241 2028 2241 
L 2688 2241 
L 2688 2328 
Q 2688 2594 2478 2717 
Q 2269 2841 1825 2841 
Q 1466 2841 1156 2769 
Q 847 2697 581 2553 
L 581 3406 
Q 941 3494 1303 3539 
Q 1666 3584 2028 3584 
Q 2975 3584 3395 3211 
Q 3816 2838 3816 1997 
z
" transform="scale(0.015625)"/>
      <path id="DejaVuSans-Bold-6c" d="M 538 4863 
L 1656 4863 
L 1656 0 
L 538 0 
L 538 4863 
z
" transform="scale(0.015625)"/>
      <path id="DejaVuSans-Bold-72" d="M 3138 2547 
Q 2991 2616 2845 2648 
Q 2700 2681 2553 2681 
Q 2122 2681 1889 2404 
Q 1656 2128 1656 1613 
L 1656 0 
L 538 0 
L 538 3500 
L 1656 3500 
L 1656 2925 
Q 1872 3269 2151 3426 
Q 2431 3584 2822 3584 
Q 2878 3584 2943 3579 
Q 3009 3575 3134 3559 
L 3138 2547 
z
" transform="scale(0.015625)"/>
     </defs>
     <use xlink:href="#DejaVuSans-Bold-61"/>
     <use xlink:href="#DejaVuSans-Bold-6c" transform="translate(67.480469 0)"/>
     <use xlink:href="#DejaVuSans-Bold-65" transform="translate(101.757812 0)"/>
     <use xlink:href="#DejaVuSans-Bold-72" transform="translate(169.580078 0)"/>
     <use xlink:href="#DejaVuSans-Bold-74" transform="translate(218.896484 0)"/>
     <use xlink:href="#DejaVuSans-Bold-73" transform="translate(266.699219 0)"/>
    </g>
   </g>
   <g id="text_16">
    <!-- id  PK -->
    <g style="fill: #111827" transform="translate(235.656 78.097837) scale(0.09 -0.09)">
     <use xlink:href="#DejaVuSans-Bold-69"/>
     <use xlink:href="#DejaVuSans-Bold-64" transform="translate(34.277344 0)"/>
     <use xlink:href="#DejaVuSans-Bold-20" transform="translate(105.859375 0)"/>
     <use xlink:href="#DejaVuSans-Bold-20" transform="translate(140.673828 0)"/>
     <use xlink:href="#DejaVuSans-Bold-50" transform="translate(175.488281 0)"/>
     <use xlink:href="#DejaVuSans-Bold-4b" transform="translate(248.779297 0)"/>
    </g>
   </g>
   <g id="text_17">
    <!-- ts_utc -->
    <g style="fill: #111827" transform="translate(235.656 86.717925) scale(0.09 -0.09)">
     <use xlink:href="#DejaVuSans-74"/>
     <use xlink:href="#DejaVuSans-73" transform="translate(39.208984 0)"/>
     <use xlink:href="#DejaVuSans-5f" transform="translate(91.308594 0)"/>
     <use xlink:href="#DejaVuSans-75" transform="translate(141.308594 0)"/>
     <use xlink:href="#DejaVuSans-74" transform="translate(204.6875 0)"/>
     <use xlink:href="#DejaVuSans-63" transform="translate(243.896484 0)"/>
    </g>
   </g>
   <g id="text_18">
    <!-- rule_id  FK* -->
    <g style="fill: #111827" transform="translate(235.656 95.713481) scale(0.09 -0.09)">
     <defs>
      <path id="DejaVuSans-20" transform="scale(0.015625)"/>
      <path id="DejaVuSans-46" d="M 628 4666 
L 3309 4666 
L 3309 4134 
L 1259 4134 
L 1259 2759 
L 3109 2759 
L 3109 2228 
L 1259 2228 
L 1259 0 
L 628 0 
L 628 4666 
z
" transform="scale(0.015625)"/>
      <path id="DejaVuSans-4b" d="M 628 4666 
L 1259 4666 
L 1259 2694 
L 3353 4666 
L 4166 4666 
L 1850 2491 
L 4331 0 
L 3500 0 
L 1259 2247 
L 1259 0 
L 628 0 
L 628 4666 
z
" transform="scale(0.015625)"/>
      <path id="DejaVuSans-2a" d="M 3009 3897 
L 1888 3291 
L 3009 2681 
L 2828 2375 
L 1778 3009 
L 1778 1831 
L 1422 1831 
L 1422 3009 
L 372 2375 
L 191 2681 
L 1313 3291 
L 191 3897 
L 372 4206 
L 1422 3572 
L 1422 4750 
L 1778 4750 
L 1778 3572 
L 2828 4206 
L 3009 3897 
z
" transform="scale(0.015625)"/>
     </defs>
     <use xlink:href="#DejaVuSans-72"/>
     <use xlink:href="#DejaVuSans-75" transform="translate(41.113281 0)"/>
     <use xlink:href="#DejaVuSans-6c" transform="translate(104.492188 0)"/>
     <use xlink:href="#DejaVuSans-65" transform="translate(132.275391 0)"/>
     <use xlink:href="#DejaVuSans-5f" transform="translate(193.798828 0)"/>
     <use xlink:href="#DejaVuSans-69" transform="translate(243.798828 0)"/>
     <use xlink:href="#DejaVuSans-64" transform="translate(271.582031 0)"/>
     <use xlink:href="#DejaVuSans-20" transform="translate(335.058594 0)"/>
     <use xlink:href="#DejaVuSans-20" transform="translate(366.845703 0)"/>
     <use xlink:href="#DejaVuSans-46" transform="translate(398.632812 0)"/>
     <use xlink:href="#DejaVuSans-4b" transform="translate(456.152344 0)"/>
     <use xlink:href="#DejaVuSans-2a" transform="translate(521.728516 0)"/>
    </g>
   </g>
   <g id="text_19">
    <!-- severity -->
    <g style="fill: #111827" transform="translate(235.656 104.709037) scale(0.09 -0.09)">
     <use xlink:href="#DejaVuSans-73"/>
     <use xlink:href="#DejaVuSans-65" transform="translate(52.099609 0)"/>
     <use xlink:href="#DejaVuSans-76" transform="translate(113.623047 0)"/>
     <use xlink:href="#DejaVuSans-65" transform="translate(172.802734 0)"/>
     <use xlink:href="#DejaVuSans-72" transform="translate(234.326172 0)"/>
     <use xlink:href="#DejaVuSans-69" transform="translate(275.439453 0)"/>
     <use xlink:href="#DejaVuSans-74" transform="translate(303.222656 0)"/>
     <use xlink:href="#DejaVuSans-79" transform="translate(342.431641 0)"/>
    </g>
   </g>
   <g id="text_20">
    <!-- title -->
    <g style="fill: #111827" transform="translate(235.656 113.579437) scale(0.09 -0.09)">
     <use xlink:href="#DejaVuSans-74"/>
     <use xlink:href="#DejaVuSans-69" transform="translate(39.208984 0)"/>
     <use xlink:href="#DejaVuSans-74" transform="translate(66.992188 0)"/>
     <use xlink:href="#DejaVuSans-6c" transform="translate(106.201172 0)"/>
     <use xlink:href="#DejaVuSans-65" transform="translate(133.984375 0)"/>
    </g>
   </g>
   <g id="text_21">
    <!-- details -->
    <g style="fill: #111827" transform="translate(235.656 122.449838) scale(0.09 -0.09)">
     <use xlink:href="#DejaVuSans-64"/>
     <use xlink:href="#DejaVuSans-65" transform="translate(63.476562 0)"/>
     <use xlink:href="#DejaVuSans-74" transform="translate(125 0)"/>
     <use xlink:href="#DejaVuSans-61" transform="translate(164.208984 0)"/>
     <use xlink:href="#DejaVuSans-69" transform="translate(225.488281 0)"/>
     <use xlink:href="#DejaVuSans-6c" transform="translate(253.271484 0)"/>
     <use xlink:href="#DejaVuSans-73" transform="translate(281.054688 0)"/>
    </g>
   </g>
   <g id="text_22">
    <!-- status -->
    <g style="fill: #111827" transform="translate(235.656 131.320237) scale(0.09 -0.09)">
     <use xlink:href="#DejaVuSans-73"/>
     <use xlink:href="#DejaVuSans-74" transform="translate(52.099609 0)"/>
     <use xlink:href="#DejaVuSans-61" transform="translate(91.308594 0)"/>
     <use xlink:href="#DejaVuSans-74" transform="translate(152.587891 0)"/>
     <use xlink:href="#DejaVuSans-75" transform="translate(191.796875 0)"/>
     <use xlink:href="#DejaVuSans-73" transform="translate(255.175781 0)"/>
    </g>
   </g>
   <g id="text_23">
    <!-- comment -->
    <g style="fill: #111827" transform="translate(235.656 140.190637) scale(0.09 -0.09)">
     <use xlink:href="#DejaVuSans-63"/>
     <use xlink:href="#DejaVuSans-6f" transform="translate(54.980469 0)"/>
     <use xlink:href="#DejaVuSans-6d" transform="translate(116.162109 0)"/>
     <use xlink:href="#DejaVuSans-6d" transform="translate(213.574219 0)"/>
     <use xlink:href="#DejaVuSans-65" transform="translate(310.986328 0)"/>
     <use xlink:href="#DejaVuSans-6e" transform="translate(372.509766 0)"/>
     <use xlink:href="#DejaVuSans-74" transform="translate(435.888672 0)"/>
    </g>
   </g>
   <g id="text_24">
    <!-- rules_state -->
    <g style="fill: #ffffff" transform="translate(470.607188 62.126775) scale(0.12 -0.12)">
     <defs>
      <path id="DejaVuSans-Bold-75" d="M 500 1363 
L 500 3500 
L 1625 3500 
L 1625 3150 
Q 1625 2866 1622 2436 
Q 1619 2006 1619 1863 
Q 1619 1441 1641 1255 
Q 1663 1069 1716 984 
Q 1784 875 1895 815 
Q 2006 756 2150 756 
Q 2500 756 2700 1025 
Q 2900 1294 2900 1772 
L 2900 3500 
L 4019 3500 
L 4019 0 
L 2900 0 
L 2900 506 
Q 2647 200 2364 54 
Q 2081 -91 1741 -91 
Q 1134 -91 817 281 
Q 500 653 500 1363 
z
" transform="scale(0.015625)"/>
      <path id="DejaVuSans-Bold-5f" d="M 3200 -916 
L 3200 -1509 
L 0 -1509 
L 0 -916 
L 3200 -916 
z
" transform="scale(0.015625)"/>
     </defs>
     <use xlink:href="#DejaVuSans-Bold-72"/>
     <use xlink:href="#DejaVuSans-Bold-75" transform="translate(49.316406 0)"/>
     <use xlink:href="#DejaVuSans-Bold-6c" transform="translate(120.507812 0)"/>
     <use xlink:href="#DejaVuSans-Bold-65" transform="translate(154.785156 0)"/>
     <use xlink:href="#DejaVuSans-Bold-73" transform="translate(222.607422 0)"/>
     <use xlink:href="#DejaVuSans-Bold-5f" transform="translate(282.128906 0)"/>
     <use xlink:href="#DejaVuSans-Bold-73" transform="translate(332.128906 0)"/>
     <use xlink:href="#DejaVuSans-Bold-74" transform="translate(391.650391 0)"/>
     <use xlink:href="#DejaVuSans-Bold-61" transform="translate(439.453125 0)"/>
     <use xlink:href="#DejaVuSans-Bold-74" transform="translate(506.933594 0)"/>
     <use xlink:href="#DejaVuSans-Bold-65" transform="translate(554.736328 0)"/>
    </g>
   </g>
   <g id="text_25">
    <!-- rule_id  PK -->
    <g style="fill: #111827" transform="translate(436.536 77.972681) scale(0.09 -0.09)">
     <use xlink:href="#DejaVuSans-Bold-72"/>
     <use xlink:href="#DejaVuSans-Bold-75" transform="translate(49.316406 0)"/>
     <use xlink:href="#DejaVuSans-Bold-6c" transform="translate(120.507812 0)"/>
     <use xlink:href="#DejaVuSans-Bold-65" transform="translate(154.785156 0)"/>
     <use xlink:href="#DejaVuSans-Bold-5f" transform="translate(222.607422 0)"/>
     <use xlink:href="#DejaVuSans-Bold-69" transform="translate(272.607422 0)"/>
     <use xlink:href="#DejaVuSans-Bold-64" transform="translate(306.884766 0)"/>
     <use xlink:href="#DejaVuSans-Bold-20" transform="translate(378.466797 0)"/>
     <use xlink:href="#DejaVuSans-Bold-20" transform="translate(413.28125 0)"/>
     <use xlink:href="#DejaVuSans-Bold-50" transform="translate(448.095703 0)"/>
     <use xlink:href="#DejaVuSans-Bold-4b" transform="translate(521.386719 0)"/>
    </g>
   </g>
   <g id="text_26">
    <!-- enabled -->
    <g style="fill: #111827" transform="translate(436.536 86.968237) scale(0.09 -0.09)">
     <defs>
      <path id="DejaVuSans-62" d="M 3116 1747 
Q 3116 2381 2855 2742 
Q 2594 3103 2138 3103 
Q 1681 3103 1420 2742 
Q 1159 2381 1159 1747 
Q 1159 1113 1420 752 
Q 1681 391 2138 391 
Q 2594 391 2855 752 
Q 3116 1113 3116 1747 
z
M 1159 2969 
Q 1341 3281 1617 3432 
Q 1894 3584 2278 3584 
Q 2916 3584 3314 3078 
Q 3713 2572 3713 1747 
Q 3713 922 3314 415 
Q 2916 -91 2278 -91 
Q 1894 -91 1617 61 
Q 1341 213 1159 525 
L 1159 0 
L 581 0 
L 581 4863 
L 1159 4863 
L 1159 2969 
z
" transform="scale(0.015625)"/>
     </defs>
     <use xlink:href="#DejaVuSans-65"/>
     <use xlink:href="#DejaVuSans-6e" transform="translate(61.523438 0)"/>
     <use xlink:href="#DejaVuSans-61" transform="translate(124.902344 0)"/>
     <use xlink:href="#DejaVuSans-62" transform="translate(186.181641 0)"/>
     <use xlink:href="#DejaVuSans-6c" transform="translate(249.658203 0)"/>
     <use xlink:href="#DejaVuSans-65" transform="translate(277.441406 0)"/>
     <use xlink:href="#DejaVuSans-64" transform="translate(338.964844 0)"/>
    </g>
   </g>
   <g id="text_27">
    <!-- actions -->
    <g style="fill: #ffffff" transform="translate(282.585 217.52565) scale(0.12 -0.12)">
     <defs>
      <path id="DejaVuSans-Bold-63" d="M 3366 3391 
L 3366 2478 
Q 3138 2634 2908 2709 
Q 2678 2784 2431 2784 
Q 1963 2784 1702 2511 
Q 1441 2238 1441 1747 
Q 1441 1256 1702 982 
Q 1963 709 2431 709 
Q 2694 709 2930 787 
Q 3166 866 3366 1019 
L 3366 103 
Q 3103 6 2833 -42 
Q 2563 -91 2291 -91 
Q 1344 -91 809 395 
Q 275 881 275 1747 
Q 275 2613 809 3098 
Q 1344 3584 2291 3584 
Q 2566 3584 2833 3536 
Q 3100 3488 3366 3391 
z
" transform="scale(0.015625)"/>
      <path id="DejaVuSans-Bold-6f" d="M 2203 2784 
Q 1831 2784 1636 2517 
Q 1441 2250 1441 1747 
Q 1441 1244 1636 976 
Q 1831 709 2203 709 
Q 2569 709 2762 976 
Q 2956 1244 2956 1747 
Q 2956 2250 2762 2517 
Q 2569 2784 2203 2784 
z
M 2203 3584 
Q 3106 3584 3614 3096 
Q 4122 2609 4122 1747 
Q 4122 884 3614 396 
Q 3106 -91 2203 -91 
Q 1297 -91 786 396 
Q 275 884 275 1747 
Q 275 2609 786 3096 
Q 1297 3584 2203 3584 
z
" transform="scale(0.015625)"/>
     </defs>
     <use xlink:href="#DejaVuSans-Bold-61"/>
     <use xlink:href="#DejaVuSans-Bold-63" transform="translate(67.480469 0)"/>
     <use xlink:href="#DejaVuSans-Bold-74" transform="translate(126.757812 0)"/>
     <use xlink:href="#DejaVuSans-Bold-69" transform="translate(174.560547 0)"/>
     <use xlink:href="#DejaVuSans-Bold-6f" transform="translate(208.837891 0)"/>
     <use xlink:href="#DejaVuSans-Bold-6e" transform="translate(277.539062 0)"/>
     <use xlink:href="#DejaVuSans-Bold-73" transform="translate(348.730469 0)"/>
    </g>
   </g>
   <g id="text_28">
    <!-- id  PK -->
    <g style="fill: #111827" transform="translate(235.656 233.329837) scale(0.09 -0.09)">
     <use xlink:href="#DejaVuSans-Bold-69"/>
     <use xlink:href="#DejaVuSans-Bold-64" transform="translate(34.277344 0)"/>
     <use xlink:href="#DejaVuSans-Bold-20" transform="translate(105.859375 0)"/>
     <use xlink:href="#DejaVuSans-Bold-20" transform="translate(140.673828 0)"/>
     <use xlink:href="#DejaVuSans-Bold-50" transform="translate(175.488281 0)"/>
     <use xlink:href="#DejaVuSans-Bold-4b" transform="translate(248.779297 0)"/>
    </g>
   </g>
   <g id="text_29">
    <!-- ts_utc -->
    <g style="fill: #111827" transform="translate(235.656 241.949925) scale(0.09 -0.09)">
     <use xlink:href="#DejaVuSans-74"/>
     <use xlink:href="#DejaVuSans-73" transform="translate(39.208984 0)"/>
     <use xlink:href="#DejaVuSans-5f" transform="translate(91.308594 0)"/>
     <use xlink:href="#DejaVuSans-75" transform="translate(141.308594 0)"/>
     <use xlink:href="#DejaVuSans-74" transform="translate(204.6875 0)"/>
     <use xlink:href="#DejaVuSans-63" transform="translate(243.896484 0)"/>
    </g>
   </g>
   <g id="text_30">
    <!-- alert_id  FK -->
    <g style="fill: #111827" transform="translate(235.656 250.945481) scale(0.09 -0.09)">
     <use xlink:href="#DejaVuSans-61"/>
     <use xlink:href="#DejaVuSans-6c" transform="translate(61.279297 0)"/>
     <use xlink:href="#DejaVuSans-65" transform="translate(89.0625 0)"/>
     <use xlink:href="#DejaVuSans-72" transform="translate(150.585938 0)"/>
     <use xlink:href="#DejaVuSans-74" transform="translate(191.699219 0)"/>
     <use xlink:href="#DejaVuSans-5f" transform="translate(230.908203 0)"/>
     <use xlink:href="#DejaVuSans-69" transform="translate(280.908203 0)"/>
     <use xlink:href="#DejaVuSans-64" transform="translate(308.691406 0)"/>
     <use xlink:href="#DejaVuSans-20" transform="translate(372.167969 0)"/>
     <use xlink:href="#DejaVuSans-20" transform="translate(403.955078 0)"/>
     <use xlink:href="#DejaVuSans-46" transform="translate(435.742188 0)"/>
     <use xlink:href="#DejaVuSans-4b" transform="translate(493.261719 0)"/>
    </g>
   </g>
   <g id="text_31">
    <!-- action_type -->
    <g style="fill: #111827" transform="translate(235.656 259.815881) scale(0.09 -0.09)">
     <use xlink:href="#DejaVuSans-61"/>
     <use xlink:href="#DejaVuSans-63" transform="translate(61.279297 0)"/>
     <use xlink:href="#DejaVuSans-74" transform="translate(116.259766 0)"/>
     <use xlink:href="#DejaVuSans-69" transform="translate(155.46875 0)"/>
     <use xlink:href="#DejaVuSans-6f" transform="translate(183.251953 0)"/>
     <use xlink:href="#DejaVuSans-6e" transform="translate(244.433594 0)"/>
     <use xlink:href="#DejaVuSans-5f" transform="translate(307.8125 0)"/>
     <use xlink:href="#DejaVuSans-74" transform="translate(357.8125 0)"/>
     <use xlink:href="#DejaVuSans-79" transform="translate(397.021484 0)"/>
     <use xlink:href="#DejaVuSans-70" transform="translate(456.201172 0)"/>
     <use xlink:href="#DejaVuSans-65" transform="translate(519.677734 0)"/>
    </g>
   </g>
   <g id="text_32">
    <!-- target -->
    <g style="fill: #111827" transform="translate(235.656 268.811438) scale(0.09 -0.09)">
     <use xlink:href="#DejaVuSans-74"/>
     <use xlink:href="#DejaVuSans-61" transform="translate(39.208984 0)"/>
     <use xlink:href="#DejaVuSans-72" transform="translate(100.488281 0)"/>
     <use xlink:href="#DejaVuSans-67" transform="translate(139.851562 0)"/>
     <use xlink:href="#DejaVuSans-65" transform="translate(203.328125 0)"/>
     <use xlink:href="#DejaVuSans-74" transform="translate(264.851562 0)"/>
    </g>
   </g>
   <g id="text_33">
    <!-- result -->
    <g style="fill: #111827" transform="translate(235.656 277.681838) scale(0.09 -0.09)">
     <use xlink:href="#DejaVuSans-72"/>
     <use xlink:href="#DejaVuSans-65" transform="translate(38.863281 0)"/>
     <use xlink:href="#DejaVuSans-73" transform="translate(100.386719 0)"/>
     <use xlink:href="#DejaVuSans-75" transform="translate(152.486328 0)"/>
     <use xlink:href="#DejaVuSans-6c" transform="translate(215.865234 0)"/>
     <use xlink:href="#DejaVuSans-74" transform="translate(243.648438 0)"/>
    </g>
   </g>
   <g id="text_34">
    <!-- details -->
    <g style="fill: #111827" transform="translate(235.656 286.552238) scale(0.09 -0.09)">
     <use xlink:href="#DejaVuSans-64"/>
     <use xlink:href="#DejaVuSans-65" transform="translate(63.476562 0)"/>
     <use xlink:href="#DejaVuSans-74" transform="translate(125 0)"/>
     <use xlink:href="#DejaVuSans-61" transform="translate(164.208984 0)"/>
     <use xlink:href="#DejaVuSans-69" transform="translate(225.488281 0)"/>
     <use xlink:href="#DejaVuSans-6c" transform="translate(253.271484 0)"/>
     <use xlink:href="#DejaVuSans-73" transform="translate(281.054688 0)"/>
    </g>
   </g>
   <g id="text_35">
    <!-- rule_params -->
    <g style="fill: #ffffff" transform="translate(466.42875 195.182775) scale(0.12 -0.12)">
     <defs>
      <path id="DejaVuSans-Bold-70" d="M 1656 506 
L 1656 -1331 
L 538 -1331 
L 538 3500 
L 1656 3500 
L 1656 2988 
Q 1888 3294 2169 3439 
Q 2450 3584 2816 3584 
Q 3463 3584 3878 3070 
Q 4294 2556 4294 1747 
Q 4294 938 3878 423 
Q 3463 -91 2816 -91 
Q 2450 -91 2169 54 
Q 1888 200 1656 506 
z
M 2400 2772 
Q 2041 2772 1848 2508 
Q 1656 2244 1656 1747 
Q 1656 1250 1848 986 
Q 2041 722 2400 722 
Q 2759 722 2948 984 
Q 3138 1247 3138 1747 
Q 3138 2247 2948 2509 
Q 2759 2772 2400 2772 
z
" transform="scale(0.015625)"/>
      <path id="DejaVuSans-Bold-6d" d="M 3781 2919 
Q 3994 3244 4286 3414 
Q 4578 3584 4928 3584 
Q 5531 3584 5847 3212 
Q 6163 2841 6163 2131 
L 6163 0 
L 5038 0 
L 5038 1825 
Q 5041 1866 5042 1909 
Q 5044 1953 5044 2034 
Q 5044 2406 4934 2573 
Q 4825 2741 4581 2741 
Q 4263 2741 4089 2478 
Q 3916 2216 3909 1719 
L 3909 0 
L 2784 0 
L 2784 1825 
Q 2784 2406 2684 2573 
Q 2584 2741 2328 2741 
Q 2006 2741 1831 2477 
Q 1656 2213 1656 1722 
L 1656 0 
L 531 0 
L 531 3500 
L 1656 3500 
L 1656 2988 
Q 1863 3284 2130 3434 
Q 2397 3584 2719 3584 
Q 3081 3584 3359 3409 
Q 3638 3234 3781 2919 
z
" transform="scale(0.015625)"/>
     </defs>
     <use xlink:href="#DejaVuSans-Bold-72"/>
     <use xlink:href="#DejaVuSans-Bold-75" transform="translate(49.316406 0)"/>
     <use xlink:href="#DejaVuSans-Bold-6c" transform="translate(120.507812 0)"/>
     <use xlink:href="#DejaVuSans-Bold-65" transform="translate(154.785156 0)"/>
     <use xlink:href="#DejaVuSans-Bold-5f" transform="translate(222.607422 0)"/>
     <use xlink:href="#DejaVuSans-Bold-70" transform="translate(272.607422 0)"/>
     <use xlink:href="#DejaVuSans-Bold-61" transform="translate(344.189453 0)"/>
     <use xlink:href="#DejaVuSans-Bold-72" transform="translate(411.669922 0)"/>
     <use xlink:href="#DejaVuSans-Bold-61" transform="translate(460.986328 0)"/>
     <use xlink:href="#DejaVuSans-Bold-6d" transform="translate(528.466797 0)"/>
     <use xlink:href="#DejaVuSans-Bold-73" transform="translate(632.666016 0)"/>
    </g>
   </g>
   <g id="text_36">
    <!-- rule_id  PK, FK* -->
    <g style="fill: #111827" transform="translate(436.536 211.028681) scale(0.09 -0.09)">
     <defs>
      <path id="DejaVuSans-Bold-2c" d="M 653 1209 
L 1778 1209 
L 1778 256 
L 1006 -909 
L 341 -909 
L 653 256 
L 653 1209 
z
" transform="scale(0.015625)"/>
      <path id="DejaVuSans-Bold-46" d="M 588 4666 
L 3834 4666 
L 3834 3756 
L 1791 3756 
L 1791 2888 
L 3713 2888 
L 3713 1978 
L 1791 1978 
L 1791 0 
L 588 0 
L 588 4666 
z
" transform="scale(0.015625)"/>
      <path id="DejaVuSans-Bold-2a" d="M 3219 3803 
L 2188 3263 
L 3219 2719 
L 2981 2278 
L 1941 2853 
L 1941 1778 
L 1409 1778 
L 1409 2853 
L 366 2278 
L 128 2719 
L 1172 3263 
L 128 3803 
L 366 4244 
L 1409 3675 
L 1409 4750 
L 1941 4750 
L 1941 3675 
L 2981 4244 
L 3219 3803 
z
" transform="scale(0.015625)"/>
     </defs>
     <use xlink:href="#DejaVuSans-Bold-72"/>
     <use xlink:href="#DejaVuSans-Bold-75" transform="translate(49.316406 0)"/>
     <use xlink:href="#DejaVuSans-Bold-6c" transform="translate(120.507812 0)"/>
     <use xlink:href="#DejaVuSans-Bold-65" transform="translate(154.785156 0)"/>
     <use xlink:href="#DejaVuSans-Bold-5f" transform="translate(222.607422 0)"/>
     <use xlink:href="#DejaVuSans-Bold-69" transform="translate(272.607422 0)"/>
     <use xlink:href="#DejaVuSans-Bold-64" transform="translate(306.884766 0)"/>
     <use xlink:href="#DejaVuSans-Bold-20" transform="translate(378.466797 0)"/>
     <use xlink:href="#DejaVuSans-Bold-20" transform="translate(413.28125 0)"/>
     <use xlink:href="#DejaVuSans-Bold-50" transform="translate(448.095703 0)"/>
     <use xlink:href="#DejaVuSans-Bold-4b" transform="translate(521.386719 0)"/>
     <use xlink:href="#DejaVuSans-Bold-2c" transform="translate(598.876953 0)"/>
     <use xlink:href="#DejaVuSans-Bold-20" transform="translate(636.865234 0)"/>
     <use xlink:href="#DejaVuSans-Bold-46" transform="translate(671.679688 0)"/>
     <use xlink:href="#DejaVuSans-Bold-4b" transform="translate(739.990234 0)"/>
     <use xlink:href="#DejaVuSans-Bold-2a" transform="translate(817.480469 0)"/>
    </g>
   </g>
   <g id="text_37">
    <!-- key  PK -->
    <g style="fill: #111827" transform="translate(436.536 219.989081) scale(0.09 -0.09)">
     <defs>
      <path id="DejaVuSans-Bold-6b" d="M 538 4863 
L 1656 4863 
L 1656 2216 
L 2944 3500 
L 4244 3500 
L 2534 1894 
L 4378 0 
L 3022 0 
L 1656 1459 
L 1656 0 
L 538 0 
L 538 4863 
z
" transform="scale(0.015625)"/>
      <path id="DejaVuSans-Bold-79" d="M 78 3500 
L 1197 3500 
L 2138 1125 
L 2938 3500 
L 4056 3500 
L 2584 -331 
Q 2363 -916 2067 -1148 
Q 1772 -1381 1288 -1381 
L 641 -1381 
L 641 -647 
L 991 -647 
Q 1275 -647 1404 -556 
Q 1534 -466 1606 -231 
L 1638 -134 
L 78 3500 
z
" transform="scale(0.015625)"/>
     </defs>
     <use xlink:href="#DejaVuSans-Bold-6b"/>
     <use xlink:href="#DejaVuSans-Bold-65" transform="translate(63.878906 0)"/>
     <use xlink:href="#DejaVuSans-Bold-79" transform="translate(131.701172 0)"/>
     <use xlink:href="#DejaVuSans-Bold-20" transform="translate(196.886719 0)"/>
     <use xlink:href="#DejaVuSans-Bold-20" transform="translate(231.701172 0)"/>
     <use xlink:href="#DejaVuSans-Bold-50" transform="translate(266.515625 0)"/>
     <use xlink:href="#DejaVuSans-Bold-4b" transform="translate(339.806641 0)"/>
    </g>
   </g>
   <g id="text_38">
    <!-- value -->
    <g style="fill: #111827" transform="translate(436.536 228.894637) scale(0.09 -0.09)">
     <use xlink:href="#DejaVuSans-76"/>
     <use xlink:href="#DejaVuSans-61" transform="translate(59.179688 0)"/>
     <use xlink:href="#DejaVuSans-6c" transform="translate(120.458984 0)"/>
     <use xlink:href="#DejaVuSans-75" transform="translate(148.242188 0)"/>
     <use xlink:href="#DejaVuSans-65" transform="translate(211.621094 0)"/>
    </g>
   </g>
   <g id="text_39">
    <!-- settings -->
    <g style="fill: #ffffff" transform="translate(78.63 228.566775) scale(0.12 -0.12)">
     <defs>
      <path id="DejaVuSans-Bold-67" d="M 2919 594 
Q 2688 288 2409 144 
Q 2131 0 1766 0 
Q 1125 0 706 504 
Q 288 1009 288 1791 
Q 288 2575 706 3076 
Q 1125 3578 1766 3578 
Q 2131 3578 2409 3434 
Q 2688 3291 2919 2981 
L 2919 3500 
L 4044 3500 
L 4044 353 
Q 4044 -491 3511 -936 
Q 2978 -1381 1966 -1381 
Q 1638 -1381 1331 -1331 
Q 1025 -1281 716 -1178 
L 716 -306 
Q 1009 -475 1290 -558 
Q 1572 -641 1856 -641 
Q 2406 -641 2662 -400 
Q 2919 -159 2919 353 
L 2919 594 
z
M 2181 2772 
Q 1834 2772 1640 2515 
Q 1447 2259 1447 1791 
Q 1447 1309 1634 1061 
Q 1822 813 2181 813 
Q 2531 813 2725 1069 
Q 2919 1325 2919 1791 
Q 2919 2259 2725 2515 
Q 2531 2772 2181 2772 
z
" transform="scale(0.015625)"/>
     </defs>
     <use xlink:href="#DejaVuSans-Bold-73"/>
     <use xlink:href="#DejaVuSans-Bold-65" transform="translate(59.521484 0)"/>
     <use xlink:href="#DejaVuSans-Bold-74" transform="translate(127.34375 0)"/>
     <use xlink:href="#DejaVuSans-Bold-74" transform="translate(175.146484 0)"/>
     <use xlink:href="#DejaVuSans-Bold-69" transform="translate(222.949219 0)"/>
     <use xlink:href="#DejaVuSans-Bold-6e" transform="translate(257.226562 0)"/>
     <use xlink:href="#DejaVuSans-Bold-67" transform="translate(328.417969 0)"/>
     <use xlink:href="#DejaVuSans-Bold-73" transform="translate(400 0)"/>
    </g>
   </g>
   <g id="text_40">
    <!-- key  PK -->
    <g style="fill: #111827" transform="translate(34.776 244.382681) scale(0.09 -0.09)">
     <use xlink:href="#DejaVuSans-Bold-6b"/>
     <use xlink:href="#DejaVuSans-Bold-65" transform="translate(63.878906 0)"/>
     <use xlink:href="#DejaVuSans-Bold-79" transform="translate(131.701172 0)"/>
     <use xlink:href="#DejaVuSans-Bold-20" transform="translate(196.886719 0)"/>
     <use xlink:href="#DejaVuSans-Bold-20" transform="translate(231.701172 0)"/>
     <use xlink:href="#DejaVuSans-Bold-50" transform="translate(266.515625 0)"/>
     <use xlink:href="#DejaVuSans-Bold-4b" transform="translate(339.806641 0)"/>
    </g>
   </g>
   <g id="text_41">
    <!-- value -->
    <g style="fill: #111827" transform="translate(34.776 253.288238) scale(0.09 -0.09)">
     <use xlink:href="#DejaVuSans-76"/>
     <use xlink:href="#DejaVuSans-61" transform="translate(59.179688 0)"/>
     <use xlink:href="#DejaVuSans-6c" transform="translate(120.458984 0)"/>
     <use xlink:href="#DejaVuSans-75" transform="translate(148.242188 0)"/>
     <use xlink:href="#DejaVuSans-65" transform="translate(211.621094 0)"/>
    </g>
   </g>
   <g id="text_42">
    <!-- 1 : N -->
    <g style="fill: #374151" transform="translate(311.544 185.3755) scale(0.08 -0.08)">
     <defs>
      <path id="DejaVuSans-31" d="M 794 531 
L 1825 531 
L 1825 4091 
L 703 3866 
L 703 4441 
L 1819 4666 
L 2450 4666 
L 2450 531 
L 3481 531 
L 3481 0 
L 794 0 
L 794 531 
z
" transform="scale(0.015625)"/>
      <path id="DejaVuSans-3a" d="M 750 794 
L 1409 794 
L 1409 0 
L 750 0 
L 750 794 
z
M 750 3309 
L 1409 3309 
L 1409 2516 
L 750 2516 
L 750 3309 
z
" transform="scale(0.015625)"/>
      <path id="DejaVuSans-4e" d="M 628 4666 
L 1478 4666 
L 3547 763 
L 3547 4666 
L 4159 4666 
L 4159 0 
L 3309 0 
L 1241 3903 
L 1241 0 
L 628 0 
L 628 4666 
z
" transform="scale(0.015625)"/>
     </defs>
     <use xlink:href="#DejaVuSans-31"/>
     <use xlink:href="#DejaVuSans-20" transform="translate(63.623047 0)"/>
     <use xlink:href="#DejaVuSans-3a" transform="translate(95.410156 0)"/>
     <use xlink:href="#DejaVuSans-20" transform="translate(129.101562 0)"/>
     <use xlink:href="#DejaVuSans-4e" transform="translate(160.888672 0)"/>
    </g>
   </g>
   <g id="text_43">
    <!-- 1 : N -->
    <g style="fill: #374151" transform="translate(411.984 91.1275) scale(0.08 -0.08)">
     <use xlink:href="#DejaVuSans-31"/>
     <use xlink:href="#DejaVuSans-20" transform="translate(63.623047 0)"/>
     <use xlink:href="#DejaVuSans-3a" transform="translate(95.410156 0)"/>
     <use xlink:href="#DejaVuSans-20" transform="translate(129.101562 0)"/>
     <use xlink:href="#DejaVuSans-4e" transform="translate(160.888672 0)"/>
    </g>
   </g>
   <g id="text_44">
    <!-- 1 : N -->
    <g style="fill: #374151" transform="translate(467.784 160.4275) scale(0.08 -0.08)">
     <use xlink:href="#DejaVuSans-31"/>
     <use xlink:href="#DejaVuSans-20" transform="translate(63.623047 0)"/>
     <use xlink:href="#DejaVuSans-3a" transform="translate(95.410156 0)"/>
     <use xlink:href="#DejaVuSans-20" transform="translate(129.101562 0)"/>
     <use xlink:href="#DejaVuSans-4e" transform="translate(160.888672 0)"/>
    </g>
   </g>
   <g id="text_45">
    <!-- источник -->
    <g style="fill: #374151" transform="translate(216.684 103.280375) scale(0.08 -0.08)">
     <defs>
      <path id="DejaVuSans-438" d="M 3578 3500 
L 3578 0 
L 3006 0 
L 3006 2809 
L 1319 0 
L 581 0 
L 581 3500 
L 1153 3500 
L 1153 697 
L 2838 3500 
L 3578 3500 
z
" transform="scale(0.015625)"/>
      <path id="DejaVuSans-441" d="M 3122 3366 
L 3122 2828 
Q 2878 2963 2633 3030 
Q 2388 3097 2138 3097 
Q 1578 3097 1268 2742 
Q 959 2388 959 1747 
Q 959 1106 1268 751 
Q 1578 397 2138 397 
Q 2388 397 2633 464 
Q 2878 531 3122 666 
L 3122 134 
Q 2881 22 2623 -34 
Q 2366 -91 2075 -91 
Q 1284 -91 818 406 
Q 353 903 353 1747 
Q 353 2603 823 3093 
Q 1294 3584 2113 3584 
Q 2378 3584 2631 3529 
Q 2884 3475 3122 3366 
z
" transform="scale(0.015625)"/>
      <path id="DejaVuSans-442" d="M 188 3500 
L 3541 3500 
L 3541 3041 
L 2147 3041 
L 2147 0 
L 1581 0 
L 1581 3041 
L 188 3041 
L 188 3500 
z
" transform="scale(0.015625)"/>
      <path id="DejaVuSans-43e" d="M 1959 3097 
Q 1497 3097 1228 2736 
Q 959 2375 959 1747 
Q 959 1119 1226 758 
Q 1494 397 1959 397 
Q 2419 397 2687 759 
Q 2956 1122 2956 1747 
Q 2956 2369 2687 2733 
Q 2419 3097 1959 3097 
z
M 1959 3584 
Q 2709 3584 3137 3096 
Q 3566 2609 3566 1747 
Q 3566 888 3137 398 
Q 2709 -91 1959 -91 
Q 1206 -91 779 398 
Q 353 888 353 1747 
Q 353 2609 779 3096 
Q 1206 3584 1959 3584 
z
" transform="scale(0.015625)"/>
      <path id="DejaVuSans-447" d="M 2625 0 
L 2625 1472 
L 1553 1472 
Q 1075 1472 756 1769 
Q 469 2038 469 2613 
L 469 3500 
L 1044 3500 
L 1044 2666 
Q 1044 2300 1206 2116 
Q 1372 1931 1697 1931 
L 2625 1931 
L 2625 3500 
L 3200 3500 
L 3200 0 
L 2625 0 
z
" transform="scale(0.015625)"/>
      <path id="DejaVuSans-43d" d="M 581 3500 
L 1159 3500 
L 1159 2072 
L 3025 2072 
L 3025 3500 
L 3603 3500 
L 3603 0 
L 3025 0 
L 3025 1613 
L 1159 1613 
L 1159 0 
L 581 0 
L 581 3500 
z
" transform="scale(0.015625)"/>
      <path id="DejaVuSans-43a" d="M 581 3500 
L 1153 3500 
L 1153 1856 
L 2775 3500 
L 3481 3500 
L 2144 2147 
L 3653 0 
L 3009 0 
L 1769 1766 
L 1153 1141 
L 1153 0 
L 581 0 
L 581 3500 
z
" transform="scale(0.015625)"/>
     </defs>
     <use xlink:href="#DejaVuSans-438"/>
     <use xlink:href="#DejaVuSans-441" transform="translate(64.990234 0)"/>
     <use xlink:href="#DejaVuSans-442" transform="translate(119.970703 0)"/>
     <use xlink:href="#DejaVuSans-43e" transform="translate(178.222656 0)"/>
     <use xlink:href="#DejaVuSans-447" transform="translate(239.404297 0)"/>
     <use xlink:href="#DejaVuSans-43d" transform="translate(298.486328 0)"/>
     <use xlink:href="#DejaVuSans-438" transform="translate(363.867188 0)"/>
     <use xlink:href="#DejaVuSans-43a" transform="translate(428.857422 0)"/>
    </g>
    <!-- событий -->
    <g style="fill: #374151" transform="translate(216.684 112.238625) scale(0.08 -0.08)">
     <defs>
      <path id="DejaVuSans-431" d="M 1991 3584 
Q 2741 3584 3169 3096 
Q 3597 2609 3597 1747 
Q 3597 888 3169 398 
Q 2741 -91 1991 -91 
Q 1238 -91 822 384 
Q 406 859 384 1747 
L 366 2463 
Q 350 2834 350 2963 
Q 350 3463 531 3831 
Q 816 4409 1308 4659 
Q 1800 4909 2625 4916 
Q 3006 4919 3175 4972 
L 3334 4516 
Q 3181 4453 3041 4450 
L 2259 4397 
Q 1866 4369 1628 4231 
Q 1006 3866 947 3388 
L 925 3213 
Q 1331 3584 1991 3584 
z
M 1991 3097 
Q 1528 3097 1259 2736 
Q 991 2375 991 1747 
Q 991 1119 1258 758 
Q 1525 397 1991 397 
Q 2450 397 2719 759 
Q 2988 1122 2988 1747 
Q 2988 2369 2719 2733 
Q 2450 3097 1991 3097 
z
" transform="scale(0.015625)"/>
      <path id="DejaVuSans-44b" d="M 3907 3500 
L 4482 3500 
L 4482 0 
L 3907 0 
L 3907 3500 
z
M 4195 3584 
L 4195 3584 
z
M 2781 1038 
Q 2781 1319 2576 1466 
Q 2372 1613 1978 1613 
L 1159 1613 
L 1159 459 
L 1978 459 
Q 2372 459 2576 607 
Q 2781 756 2781 1038 
z
M 581 3500 
L 1159 3500 
L 1159 2072 
L 2003 2072 
Q 2672 2072 3033 1817 
Q 3394 1563 3394 1038 
Q 3394 513 3033 256 
Q 2672 0 2003 0 
L 581 0 
L 581 3500 
z
" transform="scale(0.015625)"/>
      <path id="DejaVuSans-439" d="M 3578 3500 
L 3578 0 
L 3006 0 
L 3006 2809 
L 1319 0 
L 581 0 
L 581 3500 
L 1153 3500 
L 1153 697 
L 2838 3500 
L 3578 3500 
z
M 1102 4833 
L 1471 4833 
Q 1505 4599 1656 4481 
Q 1808 4364 2080 4364 
Q 2349 4364 2499 4480 
Q 2649 4596 2689 4833 
L 3058 4833 
Q 3027 4386 2780 4161 
Q 2533 3936 2080 3936 
Q 1627 3936 1380 4161 
Q 1133 4386 1102 4833 
z
" transform="scale(0.015625)"/>
     </defs>
     <use xlink:href="#DejaVuSans-441"/>
     <use xlink:href="#DejaVuSans-43e" transform="translate(54.980469 0)"/>
     <use xlink:href="#DejaVuSans-431" transform="translate(116.162109 0)"/>
     <use xlink:href="#DejaVuSans-44b" transform="translate(177.832031 0)"/>
     <use xlink:href="#DejaVuSans-442" transform="translate(256.787109 0)"/>
     <use xlink:href="#DejaVuSans-438" transform="translate(315.039062 0)"/>
     <use xlink:href="#DejaVuSans-439" transform="translate(380.029297 0)"/>
    </g>
   </g>
   <g id="text_46">
    <!-- PK — первичный ключ; FK — внешний ключ (actions.alert_id → alerts.id); FK* — логическая связь по rule_id -->
    <g style="fill: #6b7280" transform="translate(62.093672 27.522281) scale(0.09 -0.09)">
     <defs>
      <path id="DejaVuSans-50" d="M 1259 4147 
L 1259 2394 
L 2053 2394 
Q 2494 2394 2734 2622 
Q 2975 2850 2975 3272 
Q 2975 3691 2734 3919 
Q 2494 4147 2053 4147 
L 1259 4147 
z
M 628 4666 
L 2053 4666 
Q 2838 4666 3239 4311 
Q 3641 3956 3641 3272 
Q 3641 2581 3239 2228 
Q 2838 1875 2053 1875 
L 1259 1875 
L 1259 0 
L 628 0 
L 628 4666 
z
" transform="scale(0.015625)"/>
      <path id="DejaVuSans-2014" d="M 313 1978 
L 6088 1978 
L 6088 1528 
L 313 1528 
L 313 1978 
z
" transform="scale(0.015625)"/>
      <path id="DejaVuSans-43f" d="M 3603 3500 
L 3603 0 
L 3025 0 
L 3025 3041 
L 1159 3041 
L 1159 0 
L 581 0 
L 581 3500 
L 3603 3500 
z
" transform="scale(0.015625)"/>
      <path id="DejaVuSans-435" d="M 3597 1894 
L 3597 1613 
L 953 1613 
Q 991 1019 1311 708 
Q 1631 397 2203 397 
Q 2534 397 2845 478 
Q 3156 559 3463 722 
L 3463 178 
Q 3153 47 2828 -22 
Q 2503 -91 2169 -91 
Q 1331 -91 842 396 
Q 353 884 353 1716 
Q 353 2575 817 3079 
Q 1281 3584 2069 3584 
Q 2775 3584 3186 3129 
Q 3597 2675 3597 1894 
z
M 3022 2063 
Q 3016 2534 2758 2815 
Q 2500 3097 2075 3097 
Q 1594 3097 1305 2825 
Q 1016 2553 972 2059 
L 3022 2063 
z
" transform="scale(0.015625)"/>
      <path id="DejaVuSans-440" d="M 1159 525 
L 1159 -1331 
L 581 -1331 
L 581 3500 
L 1159 3500 
L 1159 2969 
Q 1341 3281 1617 3432 
Q 1894 3584 2278 3584 
Q 2916 3584 3314 3078 
Q 3713 2572 3713 1747 
Q 3713 922 3314 415 
Q 2916 -91 2278 -91 
Q 1894 -91 1617 61 
Q 1341 213 1159 525 
z
M 3116 1747 
Q 3116 2381 2855 2742 
Q 2594 3103 2138 3103 
Q 1681 3103 1420 2742 
Q 1159 2381 1159 1747 
Q 1159 1113 1420 752 
Q 1681 391 2138 391 
Q 2594 391 2855 752 
Q 3116 1113 3116 1747 
z
" transform="scale(0.015625)"/>
      <path id="DejaVuSans-432" d="M 1156 1613 
L 1156 459 
L 1975 459 
Q 2369 459 2575 607 
Q 2781 756 2781 1038 
Q 2781 1319 2575 1466 
Q 2369 1613 1975 1613 
L 1156 1613 
z
M 1156 3041 
L 1156 2072 
L 1913 2072 
Q 2238 2072 2444 2201 
Q 2650 2331 2650 2563 
Q 2650 2794 2444 2917 
Q 2238 3041 1913 3041 
L 1156 3041 
z
M 581 3500 
L 1950 3500 
Q 2566 3500 2897 3275 
Q 3228 3050 3228 2634 
Q 3228 2313 3059 2123 
Q 2891 1934 2559 1888 
Q 2956 1813 3175 1575 
Q 3394 1338 3394 981 
Q 3394 513 3033 256 
Q 2672 0 2003 0 
L 581 0 
L 581 3500 
z
" transform="scale(0.015625)"/>
      <path id="DejaVuSans-43b" d="M 238 0 
L 238 478 
Q 806 566 981 959 
Q 1194 1513 1194 2928 
L 1194 3500 
L 3559 3500 
L 3559 0 
L 2984 0 
L 2984 3041 
L 1769 3041 
L 1769 2694 
Q 1769 1344 1494 738 
Q 1200 91 238 0 
z
" transform="scale(0.015625)"/>
      <path id="DejaVuSans-44e" d="M 3431 3097 
Q 2969 3097 2700 2736 
Q 2431 2375 2431 1747 
Q 2431 1119 2698 758 
Q 2966 397 3431 397 
Q 3891 397 4159 759 
Q 4428 1122 4428 1747 
Q 4428 2369 4159 2733 
Q 3891 3097 3431 3097 
z
M 1844 2103 
Q 1903 2697 2292 3140 
Q 2681 3584 3431 3584 
Q 4181 3584 4609 3096 
Q 5038 2609 5038 1747 
Q 5038 888 4609 398 
Q 4181 -91 3431 -91 
Q 2678 -91 2267 381 
Q 1856 853 1828 1628 
L 1178 1628 
L 1178 0 
L 603 0 
L 603 3500 
L 1178 3500 
L 1178 2103 
L 1844 2103 
z
" transform="scale(0.015625)"/>
      <path id="DejaVuSans-3b" d="M 750 3309 
L 1409 3309 
L 1409 2516 
L 750 2516 
L 750 3309 
z
M 750 794 
L 1409 794 
L 1409 256 
L 897 -744 
L 494 -744 
L 750 256 
L 750 794 
z
" transform="scale(0.015625)"/>
      <path id="DejaVuSans-448" d="M 3216 459 
L 4697 459 
L 4697 3500 
L 5275 3500 
L 5275 0 
L 581 0 
L 581 3500 
L 1159 3500 
L 1159 459 
L 2638 459 
L 2638 3500 
L 3216 3500 
L 3216 459 
z
" transform="scale(0.015625)"/>
      <path id="DejaVuSans-28" d="M 1984 4856 
Q 1566 4138 1362 3434 
Q 1159 2731 1159 2009 
Q 1159 1288 1364 580 
Q 1569 -128 1984 -844 
L 1484 -844 
Q 1016 -109 783 600 
Q 550 1309 550 2009 
Q 550 2706 781 3412 
Q 1013 4119 1484 4856 
L 1984 4856 
z
" transform="scale(0.015625)"/>
      <path id="DejaVuSans-2e" d="M 684 794 
L 1344 794 
L 1344 0 
L 684 0 
L 684 794 
z
" transform="scale(0.015625)"/>
      <path id="DejaVuSans-2192" d="M 5050 2147 
L 5050 1866 
L 3822 638 
L 3447 1013 
L 4175 1741 
L 366 1741 
L 366 2272 
L 4175 2272 
L 3447 3000 
L 3822 3375 
L 5050 2147 
z
" transform="scale(0.015625)"/>
      <path id="DejaVuSans-29" d="M 513 4856 
L 1013 4856 
Q 1481 4119 1714 3412 
Q 1947 2706 1947 2009 
Q 1947 1309 1714 600 
Q 1481 -109 1013 -844 
L 513 -844 
Q 928 -128 1133 580 
Q 1338 1288 1338 2009 
Q 1338 2731 1133 3434 
Q 928 4138 513 4856 
z
" transform="scale(0.015625)"/>
      <path id="DejaVuSans-433" d="M 581 0 
L 581 3500 
L 3050 3500 
L 3050 3041 
L 1159 3041 
L 1159 0 
L 581 0 
z
" transform="scale(0.015625)"/>
      <path id="DejaVuSans-430" d="M 2194 1759 
Q 1497 1759 1228 1600 
Q 959 1441 959 1056 
Q 959 750 1161 570 
Q 1363 391 1709 391 
Q 2188 391 2477 730 
Q 2766 1069 2766 1631 
L 2766 1759 
L 2194 1759 
z
M 3341 1997 
L 3341 0 
L 2766 0 
L 2766 531 
Q 2569 213 2275 61 
Q 1981 -91 1556 -91 
Q 1019 -91 701 211 
Q 384 513 384 1019 
Q 384 1609 779 1909 
Q 1175 2209 1959 2209 
L 2766 2209 
L 2766 2266 
Q 2766 2663 2505 2880 
Q 2244 3097 1772 3097 
Q 1472 3097 1187 3025 
Q 903 2953 641 2809 
L 641 3341 
Q 956 3463 1253 3523 
Q 1550 3584 1831 3584 
Q 2591 3584 2966 3190 
Q 3341 2797 3341 1997 
z
" transform="scale(0.015625)"/>
      <path id="DejaVuSans-44f" d="M 1181 2491 
Q 1181 2231 1381 2084 
Q 1581 1938 1953 1938 
L 2728 1938 
L 2728 3041 
L 1953 3041 
Q 1581 3041 1381 2897 
Q 1181 2753 1181 2491 
z
M 363 0 
L 1431 1534 
Q 1069 1616 828 1830 
Q 588 2044 588 2491 
Q 588 2997 923 3248 
Q 1259 3500 1938 3500 
L 3306 3500 
L 3306 0 
L 2728 0 
L 2728 1478 
L 2013 1478 
L 981 0 
L 363 0 
z
" transform="scale(0.015625)"/>
      <path id="DejaVuSans-437" d="M 2206 1888 
Q 2594 1813 2809 1584 
Q 3025 1356 3025 1019 
Q 3025 478 2622 193 
Q 2219 -91 1475 -91 
Q 1225 -91 961 -47 
Q 697 -3 416 84 
L 416 619 
Q 638 503 903 445 
Q 1169 388 1459 388 
Q 1931 388 2195 563 
Q 2459 738 2459 1019 
Q 2459 1294 2225 1461 
Q 1991 1628 1563 1628 
L 1100 1628 
L 1100 2103 
L 1584 2103 
Q 1947 2103 2158 2242 
Q 2369 2381 2369 2600 
Q 2369 2800 2151 2944 
Q 1934 3088 1563 3088 
Q 1341 3088 1089 3047 
Q 838 3006 534 2916 
L 534 3438 
Q 841 3513 1106 3550 
Q 1372 3588 1609 3588 
Q 2222 3588 2576 3342 
Q 2931 3097 2931 2656 
Q 2931 2366 2743 2164 
Q 2556 1963 2206 1888 
z
" transform="scale(0.015625)"/>
      <path id="DejaVuSans-44c" d="M 2781 1038 
Q 2781 1319 2576 1466 
Q 2372 1613 1978 1613 
L 1159 1613 
L 1159 459 
L 1978 459 
Q 2372 459 2576 607 
Q 2781 756 2781 1038 
z
M 581 3500 
L 1159 3500 
L 1159 2072 
L 2003 2072 
Q 2672 2072 3033 1817 
Q 3394 1563 3394 1038 
Q 3394 513 3033 256 
Q 2672 0 2003 0 
L 581 0 
L 581 3500 
z
" transform="scale(0.015625)"/>
     </defs>
     <use xlink:href="#DejaVuSans-50"/>
     <use xlink:href="#DejaVuSans-4b" transform="translate(60.302734 0)"/>
     <use xlink:href="#DejaVuSans-20" transform="translate(125.878906 0)"/>
     <use xlink:href="#DejaVuSans-2014" transform="translate(157.666016 0)"/>
     <use xlink:href="#DejaVuSans-20" transform="translate(257.666016 0)"/>
     <use xlink:href="#DejaVuSans-43f" transform="translate(289.453125 0)"/>
     <use xlink:href="#DejaVuSans-435" transform="translate(354.833984 0)"/>
     <use xlink:href="#DejaVuSans-440" transform="translate(416.357422 0)"/>
     <use xlink:href="#DejaVuSans-432" transform="translate(479.833984 0)"/>
     <use xlink:href="#DejaVuSans-438" transform="translate(538.769531 0)"/>
     <use xlink:href="#DejaVuSans-447" transform="translate(603.759766 0)"/>
     <use xlink:href="#DejaVuSans-43d" transform="translate(662.841797 0)"/>
     <use xlink:href="#DejaVuSans-44b" transform="translate(728.222656 0)"/>
     <use xlink:href="#DejaVuSans-439" transform="translate(807.177734 0)"/>
     <use xlink:href="#DejaVuSans-20" transform="translate(872.167969 0)"/>
     <use xlink:href="#DejaVuSans-43a" transform="translate(903.955078 0)"/>
     <use xlink:href="#DejaVuSans-43b" transform="translate(964.355469 0)"/>
     <use xlink:href="#DejaVuSans-44e" transform="translate(1028.271484 0)"/>
     <use xlink:href="#DejaVuSans-447" transform="translate(1112.451172 0)"/>
     <use xlink:href="#DejaVuSans-3b" transform="translate(1171.533203 0)"/>
     <use xlink:href="#DejaVuSans-20" transform="translate(1205.224609 0)"/>
     <use xlink:href="#DejaVuSans-46" transform="translate(1237.011719 0)"/>
     <use xlink:href="#DejaVuSans-4b" transform="translate(1294.53125 0)"/>
     <use xlink:href="#DejaVuSans-20" transform="translate(1360.107422 0)"/>
     <use xlink:href="#DejaVuSans-2014" transform="translate(1391.894531 0)"/>
     <use xlink:href="#DejaVuSans-20" transform="translate(1491.894531 0)"/>
     <use xlink:href="#DejaVuSans-432" transform="translate(1523.681641 0)"/>
     <use xlink:href="#DejaVuSans-43d" transform="translate(1582.617188 0)"/>
     <use xlink:href="#DejaVuSans-435" transform="translate(1647.998047 0)"/>
     <use xlink:href="#DejaVuSans-448" transform="translate(1709.521484 0)"/>
     <use xlink:href="#DejaVuSans-43d" transform="translate(1801.025391 0)"/>
     <use xlink:href="#DejaVuSans-438" transform="translate(1866.40625 0)"/>
     <use xlink:href="#DejaVuSans-439" transform="translate(1931.396484 0)"/>
     <use xlink:href="#DejaVuSans-20" transform="translate(1996.386719 0)"/>
     <use xlink:href="#DejaVuSans-43a" transform="translate(2028.173828 0)"/>
     <use xlink:href="#DejaVuSans-43b" transform="translate(2088.574219 0)"/>
     <use xlink:href="#DejaVuSans-44e" transform="translate(2152.490234 0)"/>
     <use xlink:href="#DejaVuSans-447" transform="translate(2236.669922 0)"/>
     <use xlink:href="#DejaVuSans-20" transform="translate(2295.751953 0)"/>
     <use xlink:href="#DejaVuSans-28" transform="translate(2327.539062 0)"/>
     <use xlink:href="#DejaVuSans-61" transform="translate(2366.552734 0)"/>
     <use xlink:href="#DejaVuSans-63" transform="translate(2427.832031 0)"/>
     <use xlink:href="#DejaVuSans-74" transform="translate(2482.8125 0)"/>
     <use xlink:href="#DejaVuSans-69" transform="translate(2522.021484 0)"/>
     <use xlink:href="#DejaVuSans-6f" transform="translate(2549.804688 0)"/>
     <use xlink:href="#DejaVuSans-6e" transform="translate(2610.986328 0)"/>
     <use xlink:href="#DejaVuSans-73" transform="translate(2674.365234 0)"/>
     <use xlink:href="#DejaVuSans-2e" transform="translate(2726.464844 0)"/>
     <use xlink:href="#DejaVuSans-61" transform="translate(2758.251953 0)"/>
     <use xlink:href="#DejaVuSans-6c" transform="translate(2819.53125 0)"/>
     <use xlink:href="#DejaVuSans-65" transform="translate(2847.314453 0)"/>
     <use xlink:href="#DejaVuSans-72" transform="translate(2908.837891 0)"/>
     <use xlink:href="#DejaVuSans-74" transform="translate(2949.951172 0)"/>
     <use xlink:href="#DejaVuSans-5f" transform="translate(2989.160156 0)"/>
     <use xlink:href="#DejaVuSans-69" transform="translate(3039.160156 0)"/>
     <use xlink:href="#DejaVuSans-64" transform="translate(3066.943359 0)"/>
     <use xlink:href="#DejaVuSans-20" transform="translate(3130.419922 0)"/>
     <use xlink:href="#DejaVuSans-2192" transform="translate(3162.207031 0)"/>
     <use xlink:href="#DejaVuSans-20" transform="translate(3245.996094 0)"/>
     <use xlink:href="#DejaVuSans-61" transform="translate(3277.783203 0)"/>
     <use xlink:href="#DejaVuSans-6c" transform="translate(3339.0625 0)"/>
     <use xlink:href="#DejaVuSans-65" transform="translate(3366.845703 0)"/>
     <use xlink:href="#DejaVuSans-72" transform="translate(3428.369141 0)"/>
     <use xlink:href="#DejaVuSans-74" transform="translate(3469.482422 0)"/>
     <use xlink:href="#DejaVuSans-73" transform="translate(3508.691406 0)"/>
     <use xlink:href="#DejaVuSans-2e" transform="translate(3560.791016 0)"/>
     <use xlink:href="#DejaVuSans-69" transform="translate(3592.578125 0)"/>
     <use xlink:href="#DejaVuSans-64" transform="translate(3620.361328 0)"/>
     <use xlink:href="#DejaVuSans-29" transform="translate(3683.837891 0)"/>
     <use xlink:href="#DejaVuSans-3b" transform="translate(3722.851562 0)"/>
     <use xlink:href="#DejaVuSans-20" transform="translate(3756.542969 0)"/>
     <use xlink:href="#DejaVuSans-46" transform="translate(3788.330078 0)"/>
     <use xlink:href="#DejaVuSans-4b" transform="translate(3845.849609 0)"/>
     <use xlink:href="#DejaVuSans-2a" transform="translate(3911.425781 0)"/>
     <use xlink:href="#DejaVuSans-20" transform="translate(3961.425781 0)"/>
     <use xlink:href="#DejaVuSans-2014" transform="translate(3993.212891 0)"/>
     <use xlink:href="#DejaVuSans-20" transform="translate(4093.212891 0)"/>
     <use xlink:href="#DejaVuSans-43b" transform="translate(4125 0)"/>
     <use xlink:href="#DejaVuSans-43e" transform="translate(4188.916016 0)"/>
     <use xlink:href="#DejaVuSans-433" transform="translate(4250.097656 0)"/>
     <use xlink:href="#DejaVuSans-438" transform="translate(4302.636719 0)"/>
     <use xlink:href="#DejaVuSans-447" transform="translate(4367.626953 0)"/>
     <use xlink:href="#DejaVuSans-435" transform="translate(4426.708984 0)"/>
     <use xlink:href="#DejaVuSans-441" transform="translate(4488.232422 0)"/>
     <use xlink:href="#DejaVuSans-43a" transform="translate(4543.212891 0)"/>
     <use xlink:href="#DejaVuSans-430" transform="translate(4603.613281 0)"/>
     <use xlink:href="#DejaVuSans-44f" transform="translate(4664.892578 0)"/>
     <use xlink:href="#DejaVuSans-20" transform="translate(4725.048828 0)"/>
     <use xlink:href="#DejaVuSans-441" transform="translate(4756.835938 0)"/>
     <use xlink:href="#DejaVuSans-432" transform="translate(4811.816406 0)"/>
     <use xlink:href="#DejaVuSans-44f" transform="translate(4870.751953 0)"/>
     <use xlink:href="#DejaVuSans-437" transform="translate(4930.908203 0)"/>
     <use xlink:href="#DejaVuSans-44c" transform="translate(4984.082031 0)"/>
     <use xlink:href="#DejaVuSans-20" transform="translate(5043.017578 0)"/>
     <use xlink:href="#DejaVuSans-43f" transform="translate(5074.804688 0)"/>
     <use xlink:href="#DejaVuSans-43e" transform="translate(5140.185547 0)"/>
     <use xlink:href="#DejaVuSans-20" transform="translate(5201.367188 0)"/>
     <use xlink:href="#DejaVuSans-72" transform="translate(5233.154297 0)"/>
     <use xlink:href="#DejaVuSans-75" transform="translate(5274.267578 0)"/>
     <use xlink:href="#DejaVuSans-6c" transform="translate(5337.646484 0)"/>
     <use xlink:href="#DejaVuSans-65" transform="translate(5365.429688 0)"/>
     <use xlink:href="#DejaVuSans-5f" transform="translate(5426.953125 0)"/>
     <use xlink:href="#DejaVuSans-69" transform="translate(5476.953125 0)"/>
     <use xlink:href="#DejaVuSans-64" transform="translate(5504.736328 0)"/>
    </g>
   </g>
  </g>
 </g>
 <defs>
  <clipPath id="p3aa6ab3a4b">
   <rect x="5.76" y="5.76" width="613.8" height="432.432"/>
  </clipPath>
 </defs>
</svg>
